<svg width="32" height="33" viewBox="0 0 32 33" fill="none" xmlns="http://www.w3.org/2000/svg">
<path opacity="0.6" d="M26.6666 24.0836C26.6666 21.137 21.8933 18.7503 16 18.7503C10.1066 18.7503 5.33331 21.137 5.33331 24.0836V26.7503H26.6666V24.0836Z" fill="white"/>
<path opacity="0.5" d="M19.7712 6.97905C18.771 5.97887 17.4145 5.41696 16 5.41696C14.5854 5.41696 13.2289 5.97887 12.2287 6.97905C11.2285 7.97925 10.6666 9.3358 10.6666 10.7503C10.6666 12.1648 11.2285 13.5214 12.2287 14.5215C13.2289 15.5218 14.5854 16.0836 16 16.0836C17.4145 16.0836 18.771 15.5218 19.7712 14.5215C20.7714 13.5214 21.3333 12.1648 21.3333 10.7503C21.3333 9.3358 20.7714 7.97925 19.7712 6.97905Z" fill="white"/>
</svg>
