<svg width="12" height="8" viewBox="0 0 12 8" fill="none" xmlns="http://www.w3.org/2000/svg">
<path d="M6.7158 7.29343L11.7158 2.29344C11.809 2.2002 11.883 2.08951 11.9335 1.96768C11.9839 1.84586 12.0099 1.71529 12.0099 1.58344C12.0099 1.31713 11.9041 1.06174 11.7158 0.873435C11.6226 0.780196 11.5119 0.706235 11.39 0.655775C11.2682 0.605315 11.1377 0.579344 11.0058 0.579344C10.7395 0.579344 10.4841 0.685131 10.2958 0.873435L6.0058 5.17343L1.7158 0.873435C1.62283 0.779706 1.51223 0.705312 1.39037 0.654543C1.26851 0.603775 1.13781 0.577636 1.0058 0.577636C0.873785 0.577636 0.743079 0.603775 0.62122 0.654543C0.49936 0.705312 0.388761 0.779706 0.295797 0.873435C0.202069 0.966397 0.127673 1.077 0.0769043 1.19886C0.0261354 1.32072 -1.94554e-06 1.45142 -1.95131e-06 1.58343C-1.95708e-06 1.71545 0.0261354 1.84615 0.0769042 1.96801C0.127673 2.08987 0.202069 2.20047 0.295797 2.29343L5.2958 7.29343C5.38876 7.38716 5.49936 7.46156 5.62122 7.51233C5.74308 7.5631 5.87378 7.58923 6.0058 7.58923C6.13781 7.58923 6.26851 7.5631 6.39037 7.51233C6.51223 7.46156 6.62283 7.38716 6.7158 7.29343Z" fill="white"/>
</svg>
