<svg width="20" height="20" viewBox="0 0 20 20" fill="none" xmlns="http://www.w3.org/2000/svg">
<path d="M0.63986 10.4799L5.43986 13.4799C5.67986 13.5999 6.03986 13.5999 6.27986 13.2399C6.27986 13.1199 6.39986 12.9999 6.39986 12.8799V6.8799C6.39986 6.7599 6.15986 6.3999 5.79986 6.3999C5.67986 6.3999 5.55986 6.3999 5.43986 6.5199L0.63986 9.5199C0.39986 9.6399 0.27986 10.1199 0.39986 10.3599C0.51986 10.3599 0.63986 10.4799 0.63986 10.4799ZM1.59986 2.7999H18.3999C19.1199 2.7999 19.5999 2.3199 19.5999 1.5999C19.5999 0.879902 19.1199 0.399902 18.3999 0.399902H1.59986C0.87986 0.399902 0.39986 0.879902 0.39986 1.5999C0.39986 2.3199 0.99986 2.7999 1.59986 2.7999ZM9.99988 11.1999H18.3999C19.1199 11.1999 19.5999 10.7199 19.5999 9.9999C19.5999 9.2799 19.1199 8.7999 18.3999 8.7999H9.99988C9.27988 8.7999 8.79988 9.2799 8.79988 9.9999C8.79988 10.7199 9.39988 11.1999 9.99988 11.1999ZM1.59986 19.5999H18.3999C19.1199 19.5999 19.5999 19.1199 19.5999 18.3999C19.5999 17.6799 19.1199 17.1999 18.3999 17.1999H1.59986C0.87986 17.1999 0.39986 17.6799 0.39986 18.3999C0.39986 19.1199 0.99986 19.5999 1.59986 19.5999Z" fill="#009E50"/>
</svg>
