<svg width="17" height="17" viewBox="0 0 17 17" fill="none" xmlns="http://www.w3.org/2000/svg">
<path d="M10.1607 10.8334H10.1667M6.83335 10.8334H6.83935M3.34535 13.0634C3.49535 14.1767 4.41735 15.0494 5.54002 15.1007C6.48402 15.144 7.44335 15.1667 8.50002 15.1667C9.55669 15.1667 10.516 15.144 11.46 15.1C12.5827 15.0494 13.5047 14.1767 13.6547 13.0634C13.7527 12.3367 13.8334 11.592 13.8334 10.8334C13.8334 10.0747 13.7527 9.33004 13.6547 8.60337C13.5047 7.49004 12.5827 6.61737 11.46 6.56604C10.474 6.52097 9.48707 6.49897 8.50002 6.50004C7.44335 6.50004 6.48402 6.5227 5.54002 6.5667C4.41735 6.61737 3.49535 7.49004 3.34535 8.60337C3.24669 9.33004 3.16669 10.0747 3.16669 10.8334C3.16669 11.592 3.24735 12.3367 3.34535 13.0634Z" stroke="white" stroke-width="1.3" stroke-linecap="round" stroke-linejoin="round"/>
<path d="M5.5 6.50004V4.83337C5.5 4.03772 5.81607 3.27466 6.37868 2.71205C6.94129 2.14944 7.70435 1.83337 8.5 1.83337C9.29565 1.83337 10.0587 2.14944 10.6213 2.71205C11.1839 3.27466 11.5 4.03772 11.5 4.83337V6.50004" stroke="white" stroke-width="1.3" stroke-linecap="round" stroke-linejoin="round"/>
</svg>
