<svg width="17" height="17" viewBox="0 0 17 17" fill="none" xmlns="http://www.w3.org/2000/svg">
<path d="M8.5 7.16667C8.80642 7.16667 9.10983 7.10631 9.39293 6.98905C9.67602 6.87179 9.93325 6.69992 10.1499 6.48325C10.3666 6.26658 10.5385 6.00935 10.6557 5.72626C10.773 5.44317 10.8333 5.13975 10.8333 4.83333C10.8333 4.52692 10.773 4.2235 10.6557 3.94041C10.5385 3.65731 10.3666 3.40009 10.1499 3.18342C9.93325 2.96675 9.67602 2.79488 9.39293 2.67761C9.10983 2.56035 8.80642 2.5 8.5 2.5C7.88116 2.5 7.28767 2.74583 6.85008 3.18342C6.4125 3.621 6.16667 4.21449 6.16667 4.83333C6.16667 5.45217 6.4125 6.04566 6.85008 6.48325C7.28767 6.92083 7.88116 7.16667 8.5 7.16667ZM2.5 14.1V14.5H14.5V14.1C14.5 12.6067 14.5 11.86 14.2093 11.2893C13.9537 10.7876 13.5457 10.3797 13.044 10.124C12.4733 9.83333 11.7267 9.83333 10.2333 9.83333H6.76667C5.27333 9.83333 4.52667 9.83333 3.956 10.124C3.45426 10.3797 3.04633 10.7876 2.79067 11.2893C2.5 11.86 2.5 12.6067 2.5 14.1Z" stroke="white" stroke-width="1.3" stroke-linecap="round" stroke-linejoin="round"/>
</svg>
