<svg width="17" height="17" viewBox="0 0 17 17" fill="none" xmlns="http://www.w3.org/2000/svg">
<path d="M8.5 0.568359C10.0996 0.568359 11.6335 1.20389 12.7646 2.33496C13.8957 3.46606 14.5312 5.00003 14.5312 6.59961V6.88867L14.7822 7.0332C15.297 7.3298 15.7142 7.77009 15.9834 8.2998C16.2526 8.82953 16.3619 9.42586 16.2979 10.0166C16.2338 10.6074 15.9995 11.1672 15.623 11.627C15.2466 12.0867 14.7442 12.4271 14.1777 12.6064L13.9023 12.6934L13.8398 12.9756C13.6314 13.9214 13.1066 14.7683 12.3516 15.375C11.5964 15.9817 10.6562 16.3127 9.6875 16.3125H7.90625C7.88134 16.3125 7.85729 16.3026 7.83984 16.2852V16.2842C7.82261 16.2668 7.81259 16.2433 7.8125 16.2188C7.8125 16.194 7.82236 16.17 7.83984 16.1523C7.85751 16.1347 7.8815 16.125 7.90625 16.125H9.6875C10.5278 16.1252 11.3478 15.865 12.0342 15.3799C12.7204 14.8949 13.2392 14.2083 13.5195 13.416L13.7559 12.75H12.6562C12.6313 12.75 12.6074 12.7392 12.5898 12.7217C12.5726 12.7042 12.5626 12.6807 12.5625 12.6562V6.71875C12.5625 6.69411 12.5724 6.66999 12.5898 6.65234C12.6075 6.63469 12.6314 6.62503 12.6562 6.625H13.25C13.4155 6.625 13.5779 6.63754 13.7373 6.66309L14.3799 6.7666L14.3135 6.11914C14.1673 4.67896 13.4919 3.34459 12.418 2.37402C11.3438 1.40341 9.94767 0.865234 8.5 0.865234C7.05232 0.865249 5.65613 1.40341 4.58203 2.37402C3.50809 3.34459 2.83273 4.67901 2.68652 6.11914L2.62012 6.7666L3.2627 6.66309C3.42382 6.63726 3.58682 6.62501 3.75 6.625H4.34375C4.36861 6.625 4.39257 6.63476 4.41016 6.65234C4.42764 6.66992 4.4375 6.69398 4.4375 6.71875V12.6562C4.43741 12.6809 4.42743 12.7043 4.41016 12.7217V12.7227C4.3927 12.74 4.36865 12.75 4.34375 12.75H3.74902C3.07445 12.7507 2.41822 12.5286 1.88281 12.1182V12.1172C1.34745 11.7067 0.962645 11.1311 0.788086 10.4795C0.613513 9.82767 0.659401 9.13679 0.917969 8.51367C1.17656 7.89059 1.63318 7.36986 2.21777 7.0332L2.46875 6.88867V6.59961C2.46875 5.00003 3.10429 3.46604 4.23535 2.33496C5.36642 1.20389 6.90044 0.568375 8.5 0.568359ZM3.75 6.8125C2.98752 6.81252 2.25595 7.11514 1.7168 7.6543C1.17777 8.19344 0.875 8.9251 0.875 9.6875C0.875106 10.4497 1.17793 11.1807 1.7168 11.7197C2.25596 12.2589 2.98754 12.5625 3.75 12.5625H4.25V6.8125H3.75ZM12.75 12.5625H13.25C14.0125 12.5625 14.744 12.2589 15.2832 11.7197C15.8221 11.1807 16.1249 10.4497 16.125 9.6875C16.125 8.92507 15.8223 8.19346 15.2832 7.6543C14.744 7.11513 14.0125 6.8125 13.25 6.8125H12.75V12.5625Z" fill="#009E50" stroke="#008A45"/>
</svg>
