<svg width="16" height="16" viewBox="0 0 16 16" fill="none" xmlns="http://www.w3.org/2000/svg">
<g clip-path="url(#clip0_1694_3396)">
<path d="M14.5 8C14.5 9.72391 13.8152 11.3772 12.5962 12.5962C11.3772 13.8152 9.72391 14.5 8 14.5M14.5 8C14.5 6.27609 13.8152 4.62279 12.5962 3.40381C11.3772 2.18482 9.72391 1.5 8 1.5M14.5 8C14.5 9.657 11.59 11 8 11C4.41 11 1.5 9.657 1.5 8M14.5 8C14.5 6.343 11.59 5 8 5C4.41 5 1.5 6.343 1.5 8M8 14.5C6.27609 14.5 4.62279 13.8152 3.40381 12.5962C2.18482 11.3772 1.5 9.72391 1.5 8M8 14.5C9.657 14.5 11 11.59 11 8C11 4.41 9.657 1.5 8 1.5M8 14.5C6.343 14.5 5 11.59 5 8C5 4.41 6.343 1.5 8 1.5M8 1.5C6.27609 1.5 4.62279 2.18482 3.40381 3.40381C2.18482 4.62279 1.5 6.27609 1.5 8" stroke="#6C7890" stroke-width="1.1"/>
</g>
<defs>
<clipPath id="clip0_1694_3396">
<rect width="16" height="16" fill="white"/>
</clipPath>
</defs>
</svg>
