<svg width="18" height="18" viewBox="0 0 18 18" fill="none" xmlns="http://www.w3.org/2000/svg">
<g clip-path="url(#clip0_83_1623)">
<path fill-rule="evenodd" clip-rule="evenodd" d="M0.9375 3C0.9375 1.86092 1.86092 0.9375 3 0.9375H15C16.1391 0.9375 17.0625 1.86092 17.0625 3V15C17.0625 16.1391 16.1391 17.0625 15 17.0625H3C1.86092 17.0625 0.9375 16.1391 0.9375 15V3ZM10.2724 4.13989C10.4713 3.90124 10.826 3.86899 11.0647 4.06787L13.1101 5.77242C13.238 5.87901 13.3121 6.0368 13.3125 6.20329C13.3129 6.36979 13.2395 6.5279 13.112 6.63506L11.0665 8.35515C10.8288 8.55502 10.474 8.52443 10.274 8.2866C10.0741 8.04885 10.1047 7.69403 10.3425 7.49409L11.2071 6.76705H6.61364C6.17118 6.76705 5.8125 7.12573 5.8125 7.56818V8.25C5.8125 8.56065 5.56066 8.8125 5.25 8.8125C4.93934 8.8125 4.6875 8.56065 4.6875 8.25V7.56818C4.6875 6.50441 5.54987 5.64205 6.61364 5.64205H11.1964L10.3444 4.93213C10.1058 4.73324 10.0736 4.37855 10.2724 4.13989ZM7.7328 13.558C7.53743 13.7996 7.18327 13.837 6.94172 13.6416L4.89627 11.9873C4.76318 11.8797 4.68635 11.7173 4.68752 11.5461C4.68868 11.375 4.76771 11.2137 4.90225 11.1078L6.94771 9.49902C7.19188 9.30695 7.54553 9.34925 7.7376 9.59337C7.92968 9.83757 7.88737 10.1912 7.64318 10.3833L6.87503 10.9875H11.3863C11.8985 10.9875 12.1875 10.6366 12.1875 10.35V9.74997C12.1875 9.43932 12.4394 9.18747 12.75 9.18747C13.0606 9.18747 13.3125 9.43932 13.3125 9.74997V10.35C13.3125 11.3888 12.3804 12.1125 11.3863 12.1125H6.83997L7.64918 12.7669C7.89075 12.9623 7.92817 13.3165 7.7328 13.558Z" fill="#F0E47F"/>
</g>
<defs>
<clipPath id="clip0_83_1623">
<rect width="18" height="18" fill="white"/>
</clipPath>
</defs>
</svg>
