<svg width="20" height="17" viewBox="0 0 20 17" fill="none" xmlns="http://www.w3.org/2000/svg">
<path d="M16.3499 0.226562C16.8803 0.226563 17.3891 0.437276 17.7641 0.812349C18.1392 1.18742 18.3499 1.69613 18.3499 2.22656V3.22656H12.3499C11.0238 3.22656 9.75206 3.75335 8.81438 4.69103C7.8767 5.62871 7.34991 6.90048 7.34991 8.22656C7.34991 9.55264 7.8767 10.8244 8.81438 11.7621C9.75206 12.6998 11.0238 13.2266 12.3499 13.2266H18.3499V14.2266C18.3499 14.757 18.1392 15.2657 17.7641 15.6408C17.3891 16.0158 16.8803 16.2266 16.3499 16.2266H2.34991C1.81948 16.2266 1.31077 16.0158 0.935701 15.6408C0.560628 15.2657 0.349915 14.757 0.349915 14.2266V2.22656C0.349915 1.69613 0.560628 1.18742 0.935701 0.812349C1.31077 0.437276 1.81948 0.226563 2.34991 0.226562H16.3499ZM17.3499 5.22656C17.8803 5.22656 18.3891 5.43728 18.7641 5.81235C19.1392 6.18742 19.3499 6.69613 19.3499 7.22656V9.22656C19.3499 9.757 19.1392 10.2657 18.7641 10.6408C18.3891 11.0158 17.8803 11.2266 17.3499 11.2266H12.3499C11.5543 11.2266 10.7912 10.9105 10.2286 10.3479C9.66599 9.78527 9.34991 9.02221 9.34991 8.22656C9.34991 7.43091 9.66599 6.66785 10.2286 6.10524C10.7912 5.54263 11.5543 5.22656 12.3499 5.22656H17.3499ZM12.3499 7.22656C12.0847 7.22656 11.8303 7.33192 11.6428 7.51946C11.4553 7.70699 11.3499 7.96135 11.3499 8.22656C11.3499 8.49178 11.4553 8.74613 11.6428 8.93367C11.8303 9.12121 12.0847 9.22656 12.3499 9.22656C12.6151 9.22656 12.8695 9.12121 13.057 8.93367C13.2446 8.74613 13.3499 8.49178 13.3499 8.22656C13.3499 7.96135 13.2446 7.70699 13.057 7.51946C12.8695 7.33192 12.6151 7.22656 12.3499 7.22656Z" fill="#848484"/>
</svg>
