<svg width="33" height="32" viewBox="0 0 33 32" fill="none" xmlns="http://www.w3.org/2000/svg">
<path d="M27.1716 23.9993C27.1716 21.0527 22.3983 18.666 16.5049 18.666C10.6116 18.666 5.83826 21.0527 5.83826 23.9993V26.666H27.1716V23.9993Z" fill="url(#paint0_linear_10119_4719)"/>
<path d="M20.2761 6.89412C19.276 5.89394 17.9194 5.33203 16.5049 5.33203C15.0904 5.33203 13.7339 5.89394 12.7337 6.89412C11.7335 7.89432 11.1716 9.25087 11.1716 10.6654C11.1716 12.0799 11.7335 13.4364 12.7337 14.4366C13.7339 15.4368 15.0904 15.9987 16.5049 15.9987C17.9194 15.9987 19.276 15.4368 20.2761 14.4366C21.2764 13.4364 21.8382 12.0799 21.8382 10.6654C21.8382 9.25087 21.2764 7.89432 20.2761 6.89412Z" fill="url(#paint1_linear_10119_4719)"/>
<defs>
<linearGradient id="paint0_linear_10119_4719" x1="16.5049" y1="18.666" x2="16.5049" y2="26.666" gradientUnits="userSpaceOnUse">
<stop stop-color="#D57DFF"/>
<stop offset="1" stop-color="#9D33CE"/>
</linearGradient>
<linearGradient id="paint1_linear_10119_4719" x1="16.5049" y1="5.33203" x2="16.5049" y2="15.9987" gradientUnits="userSpaceOnUse">
<stop stop-color="#E6BEFF"/>
<stop offset="1" stop-color="#BE54FF"/>
</linearGradient>
</defs>
</svg>
