<svg width="24" height="24" viewBox="0 0 24 24" fill="none" xmlns="http://www.w3.org/2000/svg">
<path d="M2.63986 12.4794L7.43986 15.4794C7.67986 15.5994 8.03986 15.5994 8.27986 15.2394C8.27986 15.1194 8.39986 14.9994 8.39986 14.8794V8.87941C8.39986 8.75941 8.15986 8.39941 7.79986 8.39941C7.67986 8.39941 7.55986 8.39941 7.43986 8.51941L2.63986 11.5194C2.39986 11.6394 2.27986 12.1194 2.39986 12.3594C2.51986 12.3594 2.63986 12.4794 2.63986 12.4794ZM3.59986 4.79941H20.3999C21.1199 4.79941 21.5999 4.31941 21.5999 3.59941C21.5999 2.87941 21.1199 2.39941 20.3999 2.39941H3.59986C2.87986 2.39941 2.39986 2.87941 2.39986 3.59941C2.39986 4.31941 2.99986 4.79941 3.59986 4.79941ZM11.9999 13.1994H20.3999C21.1199 13.1994 21.5999 12.7194 21.5999 11.9994C21.5999 11.2794 21.1199 10.7994 20.3999 10.7994H11.9999C11.2799 10.7994 10.7999 11.2794 10.7999 11.9994C10.7999 12.7194 11.3999 13.1994 11.9999 13.1994ZM3.59986 21.5994H20.3999C21.1199 21.5994 21.5999 21.1194 21.5999 20.3994C21.5999 19.6794 21.1199 19.1994 20.3999 19.1994H3.59986C2.87986 19.1994 2.39986 19.6794 2.39986 20.3994C2.39986 21.1194 2.99986 21.5994 3.59986 21.5994Z" fill="#E38901"/>
</svg>
