<svg width="20" height="20" viewBox="0 0 20 20" fill="none" xmlns="http://www.w3.org/2000/svg">
<path d="M9.99402 0.5C10.4264 0.496835 10.8505 0.610632 11.2216 0.828125L11.3768 0.927734L11.3778 0.928711C12.8952 1.98657 14.6389 2.67494 16.4696 2.93945H16.4706C17.0403 3.01985 17.5622 3.30373 17.9393 3.73828C18.3163 4.17263 18.5237 4.72862 18.5233 5.30371V6.54883C18.5233 11.3052 17.074 14.3762 15.3456 16.335C13.6255 18.2843 11.6653 19.0919 10.6981 19.3926C10.2942 19.5183 9.86513 19.5337 9.45496 19.4395L9.28015 19.3926C8.31306 19.0919 6.3528 18.2843 4.63269 16.335C2.9043 14.3762 1.45502 11.3052 1.45496 6.54883V5.31152C1.45351 4.73505 1.66163 4.17723 2.03992 3.74219C2.41841 3.30712 2.94223 3.02371 3.51355 2.94531H3.51648C5.35499 2.705 7.10724 2.01842 8.62 0.946289C9.02103 0.659504 9.50095 0.503623 9.99402 0.5Z" fill="#E38901" stroke="white"/>
<path d="M8.61194 13.7607C8.48405 13.7607 8.35742 13.7355 8.23927 13.6866C8.12113 13.6376 8.01378 13.5659 7.92335 13.4754L6.02341 11.5755C5.84077 11.3929 5.73816 11.1451 5.73816 10.8868C5.73816 10.6286 5.84077 10.3808 6.02341 10.1982C6.20605 10.0156 6.45376 9.91295 6.71205 9.91295C6.97035 9.91295 7.21806 10.0156 7.4007 10.1982L8.51747 11.315L12.4948 6.15933C12.573 6.05806 12.6703 5.97317 12.7812 5.90951C12.8921 5.84584 13.0145 5.80465 13.1413 5.78828C13.2682 5.77191 13.397 5.78069 13.5205 5.81411C13.6439 5.84753 13.7596 5.90494 13.8608 5.98306C13.9621 6.06118 14.047 6.15848 14.1107 6.2694C14.1743 6.38033 14.2155 6.50271 14.2319 6.62956C14.2483 6.7564 14.2395 6.88523 14.2061 7.00868C14.1726 7.13214 14.1152 7.2478 14.0371 7.34907L9.38314 13.3817C9.29859 13.4913 9.19165 13.5816 9.06945 13.6466C8.94725 13.7116 8.81259 13.7498 8.67446 13.7587C8.6536 13.7601 8.63274 13.7607 8.61194 13.7607Z" fill="white"/>
</svg>
