<svg width="19" height="19" viewBox="0 0 19 19" fill="none" xmlns="http://www.w3.org/2000/svg">
<path d="M10.5 1.56836C12.0996 1.56836 13.6335 2.20389 14.7646 3.33496C15.8957 4.46606 16.5312 6.00003 16.5312 7.59961V7.88867L16.7822 8.0332C17.297 8.3298 17.7142 8.77009 17.9834 9.2998C18.2526 9.82953 18.3619 10.4259 18.2979 11.0166C18.2338 11.6074 17.9995 12.1672 17.623 12.627C17.2466 13.0867 16.7442 13.4271 16.1777 13.6064L15.9023 13.6934L15.8398 13.9756C15.6314 14.9214 15.1066 15.7683 14.3516 16.375C13.5964 16.9817 12.6562 17.3127 11.6875 17.3125H9.90625C9.88134 17.3125 9.85729 17.3026 9.83984 17.2852V17.2842C9.82261 17.2668 9.81259 17.2433 9.8125 17.2188C9.8125 17.194 9.82236 17.17 9.83984 17.1523C9.85751 17.1347 9.8815 17.125 9.90625 17.125H11.6875C12.5278 17.1252 13.3478 16.865 14.0342 16.3799C14.7204 15.8949 15.2392 15.2083 15.5195 14.416L15.7559 13.75H14.6562C14.6313 13.75 14.6074 13.7392 14.5898 13.7217C14.5726 13.7042 14.5626 13.6807 14.5625 13.6562V7.71875C14.5625 7.69411 14.5724 7.66999 14.5898 7.65234C14.6075 7.63469 14.6314 7.62503 14.6562 7.625H15.25C15.4155 7.625 15.5779 7.63754 15.7373 7.66309L16.3799 7.7666L16.3135 7.11914C16.1673 5.67896 15.4919 4.34459 14.418 3.37402C13.3438 2.40341 11.9477 1.86523 10.5 1.86523C9.05232 1.86525 7.65613 2.40341 6.58203 3.37402C5.50809 4.34459 4.83273 5.67901 4.68652 7.11914L4.62012 7.7666L5.2627 7.66309C5.42382 7.63726 5.58682 7.62501 5.75 7.625H6.34375C6.36861 7.625 6.39257 7.63476 6.41016 7.65234C6.42764 7.66992 6.4375 7.69398 6.4375 7.71875V13.6562C6.43741 13.6809 6.42743 13.7043 6.41016 13.7217V13.7227C6.3927 13.74 6.36865 13.75 6.34375 13.75H5.74902C5.07445 13.7507 4.41822 13.5286 3.88281 13.1182V13.1172C3.34745 12.7067 2.96264 12.1311 2.78809 11.4795C2.61351 10.8277 2.6594 10.1368 2.91797 9.51367C3.17656 8.89059 3.63318 8.36986 4.21777 8.0332L4.46875 7.88867V7.59961C4.46875 6.00003 5.10429 4.46604 6.23535 3.33496C7.36642 2.20389 8.90044 1.56838 10.5 1.56836ZM5.75 7.8125C4.98752 7.81252 4.25595 8.11514 3.7168 8.6543C3.17777 9.19344 2.875 9.9251 2.875 10.6875C2.87511 11.4497 3.17793 12.1807 3.7168 12.7197C4.25596 13.2589 4.98754 13.5625 5.75 13.5625H6.25V7.8125H5.75ZM14.75 13.5625H15.25C16.0125 13.5625 16.744 13.2589 17.2832 12.7197C17.8221 12.1807 18.1249 11.4497 18.125 10.6875C18.125 9.92507 17.8223 9.19346 17.2832 8.6543C16.744 8.11513 16.0125 7.8125 15.25 7.8125H14.75V13.5625Z" fill="#E38901" stroke="#008A45"/>
<path d="M9 13C9.55556 13.566 10.9333 14.3583 12 13H9Z" fill="#E38901"/>
<path d="M9 13C9.55556 13.566 10.9333 14.3583 12 13" stroke="#008A45" stroke-width="0.75" stroke-linecap="round"/>
</svg>
