<svg width="16" height="16" viewBox="0 0 16 16" fill="none" xmlns="http://www.w3.org/2000/svg">
<path d="M9.66075 10.3334H9.66675M6.33341 10.3334H6.33941M2.84541 12.5634C2.99541 13.6767 3.91741 14.5494 5.04008 14.6007C5.98408 14.644 6.94341 14.6667 8.00008 14.6667C9.05675 14.6667 10.0161 14.644 10.9601 14.6C12.0827 14.5494 13.0047 13.6767 13.1547 12.5634C13.2527 11.8367 13.3334 11.092 13.3334 10.3334C13.3334 9.5747 13.2527 8.83004 13.1547 8.10337C13.0047 6.99004 12.0827 6.11737 10.9601 6.06604C9.97406 6.02097 8.98713 5.99897 8.00008 6.00004C6.94341 6.00004 5.98408 6.0227 5.04008 6.0667C3.91741 6.11737 2.99541 6.99004 2.84541 8.10337C2.74675 8.83004 2.66675 9.5747 2.66675 10.3334C2.66675 11.092 2.74741 11.8367 2.84541 12.5634Z" stroke="#10257D" stroke-width="1.3" stroke-linecap="round" stroke-linejoin="round"/>
<path d="M5 6.00016V4.3335C5 3.53785 5.31607 2.77478 5.87868 2.21218C6.44129 1.64957 7.20435 1.3335 8 1.3335C8.79565 1.3335 9.55871 1.64957 10.1213 2.21218C10.6839 2.77478 11 3.53785 11 4.3335V6.00016" stroke="#10257D" stroke-width="1.3" stroke-linecap="round" stroke-linejoin="round"/>
</svg>
