<svg width="26" height="21" viewBox="0 0 26 21" fill="none" xmlns="http://www.w3.org/2000/svg">
<path fill-rule="evenodd" clip-rule="evenodd" d="M6.39078 4.46318C7.36408 2.1566 9.72687 0 13.226 0C17.002 0 20.2223 2.54697 20.9736 6.65847C21.9448 6.82118 22.9524 7.20163 23.7908 7.82394C24.8796 8.6322 25.7019 9.87149 25.7019 11.5265C25.7019 13.1225 25.0274 14.3998 23.9276 15.2548C22.8533 16.0901 21.4328 16.4806 19.9567 16.4806H16.3029C15.7851 16.4806 15.3654 16.0608 15.3654 15.5431C15.3654 15.0253 15.7851 14.6056 16.3029 14.6056H19.9567C21.1249 14.6056 22.1082 14.2943 22.7767 13.7746C23.4197 13.2747 23.8269 12.5437 23.8269 11.5265C23.8269 10.5684 23.3752 9.85061 22.6732 9.32947C21.948 8.79119 20.9797 8.48976 20.1027 8.44635C19.6409 8.42349 19.2647 8.06737 19.2166 7.60752C18.8379 3.98603 16.2434 1.875 13.226 1.875C10.3775 1.875 8.56016 3.74999 7.96479 5.60558C7.85024 5.9626 7.53399 6.21703 7.16072 6.25247C4.56058 6.49932 2.625 8.08583 2.625 10.4311C2.625 12.7923 4.66712 14.6056 7.45673 14.6056H10.149C10.6668 14.6056 11.0865 15.0253 11.0865 15.5431C11.0865 16.0608 10.6668 16.4806 10.149 16.4806H7.45673C3.90019 16.4806 0.75 14.0774 0.75 10.4311C0.75 6.99797 3.44304 4.95339 6.39078 4.46318Z" fill="white" fill-opacity="0.77"/>
<path fill-rule="evenodd" clip-rule="evenodd" d="M12.5632 6.42408C12.9292 6.05826 13.5225 6.05826 13.8885 6.42408L16.9655 9.49894C17.3317 9.86493 17.3319 10.4585 16.9659 10.8248C16.5999 11.191 16.0063 11.1912 15.6401 10.8252L14.1633 9.34947V19.4068C14.1633 19.9246 13.7436 20.3443 13.2258 20.3443C12.7081 20.3443 12.2883 19.9246 12.2883 19.4068V9.34947L10.8116 10.8252C10.4454 11.1912 9.85178 11.191 9.48579 10.8248C9.1198 10.4585 9.12 9.86493 9.48624 9.49894L12.5632 6.42408Z" fill="white" fill-opacity="0.77"/>
</svg>
