<svg width="36" height="19" viewBox="0 0 36 19" fill="none" xmlns="http://www.w3.org/2000/svg">
<path fill-rule="evenodd" clip-rule="evenodd" d="M35.7883 9.88551C35.7883 10.2709 35.6352 10.6405 35.3627 10.913C35.0902 11.1855 34.7206 11.3386 34.3352 11.3386L5.17039 10.9532L10.4404 16.2232C10.6971 16.4987 10.8368 16.863 10.8302 17.2395C10.8235 17.616 10.671 17.9751 10.4048 18.2414C10.1385 18.5076 9.77936 18.6601 9.4029 18.6668C9.02645 18.6734 8.6621 18.5337 8.38664 18.277L0.636641 10.527C0.364518 10.2545 0.21167 9.88519 0.21167 9.50011C0.21167 9.11504 0.364518 8.7457 0.636641 8.47324L8.38664 0.72324C8.6621 0.46656 9.02644 0.32682 9.4029 0.333461C9.77936 0.340103 10.1385 0.49261 10.4048 0.758848C10.671 1.02508 10.8235 1.38427 10.8302 1.76073C10.8368 2.13719 10.6971 2.50153 10.4404 2.77699L5.17039 8.04699L34.3352 8.43238C34.7206 8.43238 35.0902 8.58548 35.3627 8.85799C35.6352 9.13051 35.7883 9.50011 35.7883 9.88551Z" fill="black"/>
</svg>
