<svg width="17" height="18" viewBox="0 0 17 18" fill="none" xmlns="http://www.w3.org/2000/svg">
<path fill-rule="evenodd" clip-rule="evenodd" d="M0.166992 3C0.166992 1.86092 1.09041 0.9375 2.22949 0.9375H14.2295C15.3686 0.9375 16.292 1.86092 16.292 3V15C16.292 16.1391 15.3686 17.0625 14.2295 17.0625H2.22949C1.09041 17.0625 0.166992 16.1391 0.166992 15V3ZM9.50194 4.13989C9.70077 3.90124 10.0555 3.86899 10.2942 4.06787L12.3396 5.77242C12.4675 5.87901 12.5416 6.0368 12.542 6.20329C12.5424 6.36979 12.4689 6.5279 12.3415 6.63506L10.296 8.35515C10.0583 8.55502 9.70347 8.52443 9.50352 8.2866C9.30357 8.04885 9.33424 7.69403 9.57199 7.49409L10.4366 6.76705H5.84313C5.40067 6.76705 5.04199 7.12573 5.04199 7.56818V8.25C5.04199 8.56065 4.79015 8.8125 4.47949 8.8125C4.16883 8.8125 3.91699 8.56065 3.91699 8.25V7.56818C3.91699 6.50441 4.77936 5.64205 5.84313 5.64205H10.4259L9.57394 4.93213C9.33529 4.73324 9.30304 4.37855 9.50194 4.13989ZM6.96229 13.558C6.76692 13.7996 6.41276 13.837 6.17121 13.6416L4.12576 11.9873C3.99267 11.8797 3.91584 11.7173 3.91701 11.5461C3.91817 11.375 3.9972 11.2137 4.13174 11.1078L6.1772 9.49902C6.42138 9.30695 6.77502 9.34925 6.96709 9.59337C7.15917 9.83757 7.11687 10.1912 6.87267 10.3833L6.10452 10.9875H10.6158C11.128 10.9875 11.417 10.6366 11.417 10.35V9.74997C11.417 9.43932 11.6688 9.18747 11.9795 9.18747C12.2901 9.18747 12.542 9.43932 12.542 9.74997V10.35C12.542 11.3888 11.6099 12.1125 10.6158 12.1125H6.06946L6.87867 12.7669C7.12024 12.9623 7.15767 13.3165 6.96229 13.558Z" fill="#CBA354"/>
</svg>
