<svg width="12" height="11" viewBox="0 0 12 11" fill="none" xmlns="http://www.w3.org/2000/svg">
<path d="M12 5.52503C12 5.79024 11.8975 6.0446 11.715 6.23213C11.5325 6.41967 11.285 6.52503 11.027 6.52503L3.32046 6.52503L5.87632 9.15169C6.0482 9.34126 6.14177 9.59199 6.13732 9.85105C6.13287 10.1101 6.03076 10.3573 5.85248 10.5405C5.6742 10.7237 5.43368 10.8287 5.1816 10.8333C4.92951 10.8378 4.68554 10.7417 4.50109 10.565L0.28457 6.23169C0.102351 6.04419 2.45801e-07 5.79003 2.34218e-07 5.52503C2.22634e-07 5.26003 0.102351 5.00586 0.28457 4.81836L4.50109 0.485026C4.59017 0.386776 4.69759 0.307974 4.81695 0.253318C4.93631 0.198662 5.06516 0.169273 5.19581 0.166903C5.32646 0.164534 5.45624 0.189234 5.5774 0.239528C5.69856 0.289823 5.80862 0.364683 5.90102 0.459641C5.99342 0.554599 6.06626 0.667711 6.1152 0.792229C6.16414 0.916746 6.18817 1.05012 6.18587 1.18439C6.18356 1.31866 6.15496 1.45108 6.10178 1.57374C6.0486 1.69641 5.97192 1.80681 5.87632 1.89836L3.32046 4.52503L11.027 4.52503C11.5641 4.52503 12 4.97303 12 5.52503Z" fill="white"/>
</svg>
