<svg width="16" height="16" viewBox="0 0 16 16" fill="none" xmlns="http://www.w3.org/2000/svg">
<path d="M9.6605 10.3334H9.6665M6.33317 10.3334H6.33917M2.84517 12.5634C2.99517 13.6767 3.91717 14.5494 5.03984 14.6007C5.98384 14.644 6.94317 14.6667 7.99984 14.6667C9.0565 14.6667 10.0158 14.644 10.9598 14.6C12.0825 14.5494 13.0045 13.6767 13.1545 12.5634C13.2525 11.8367 13.3332 11.092 13.3332 10.3334C13.3332 9.5747 13.2525 8.83004 13.1545 8.10337C13.0045 6.99004 12.0825 6.11737 10.9598 6.06604C9.97382 6.02097 8.98688 5.99897 7.99984 6.00004C6.94317 6.00004 5.98384 6.0227 5.03984 6.0667C3.91717 6.11737 2.99517 6.99004 2.84517 8.10337C2.7465 8.83004 2.6665 9.5747 2.6665 10.3334C2.6665 11.092 2.74717 11.8367 2.84517 12.5634Z" stroke="black" stroke-width="1.3" stroke-linecap="round" stroke-linejoin="round"/>
<path d="M5 6.00016V4.3335C5 3.53785 5.31607 2.77478 5.87868 2.21218C6.44129 1.64957 7.20435 1.3335 8 1.3335C8.79565 1.3335 9.55871 1.64957 10.1213 2.21218C10.6839 2.77478 11 3.53785 11 4.3335V6.00016" stroke="black" stroke-width="1.3" stroke-linecap="round" stroke-linejoin="round"/>
</svg>
