<svg width="19" height="18" viewBox="0 0 19 18" fill="none" xmlns="http://www.w3.org/2000/svg">
<g clip-path="url(#clip0_5304_8200)">
<path fill-rule="evenodd" clip-rule="evenodd" d="M1.89062 3C1.89062 1.86092 2.81404 0.9375 3.95312 0.9375H15.9531C17.0922 0.9375 18.0156 1.86092 18.0156 3V15C18.0156 16.1391 17.0922 17.0625 15.9531 17.0625H3.95312C2.81404 17.0625 1.89062 16.1391 1.89062 15V3ZM11.2256 4.13989C11.4244 3.90124 11.7792 3.86899 12.0178 4.06787L14.0632 5.77242C14.1912 5.87901 14.2653 6.0368 14.2656 6.20329C14.266 6.36979 14.1926 6.5279 14.0652 6.63506L12.0197 8.35515C11.7819 8.55502 11.4271 8.52443 11.2271 8.2866C11.0272 8.04885 11.0579 7.69403 11.2956 7.49409L12.1602 6.76705H7.56676C7.12431 6.76705 6.76562 7.12573 6.76562 7.56818V8.25C6.76562 8.56065 6.51378 8.8125 6.20312 8.8125C5.89247 8.8125 5.64062 8.56065 5.64062 8.25V7.56818C5.64062 6.50441 6.50299 5.64205 7.56676 5.64205H12.1495L11.2976 4.93213C11.0589 4.73324 11.0267 4.37855 11.2256 4.13989ZM8.68593 13.558C8.49055 13.7996 8.13639 13.837 7.89485 13.6416L5.84939 11.9873C5.71631 11.8797 5.63948 11.7173 5.64064 11.5461C5.6418 11.375 5.72084 11.2137 5.85537 11.1078L7.90083 9.49902C8.14501 9.30695 8.49865 9.34925 8.69073 9.59337C8.8828 9.83757 8.8405 10.1912 8.5963 10.3833L7.82816 10.9875H12.3395C12.8517 10.9875 13.1406 10.6366 13.1406 10.35V9.74997C13.1406 9.43932 13.3925 9.18747 13.7031 9.18747C14.0138 9.18747 14.2656 9.43932 14.2656 9.74997V10.35C14.2656 11.3888 13.3335 12.1125 12.3395 12.1125H7.79309L8.6023 12.7669C8.84388 12.9623 8.8813 13.3165 8.68593 13.558Z" fill="#025BE8"/>
</g>
<defs>
<clipPath id="clip0_5304_8200">
<rect width="18" height="18" fill="white" transform="translate(0.953125)"/>
</clipPath>
</defs>
</svg>
