<svg width="17" height="17" viewBox="0 0 17 17" fill="none" xmlns="http://www.w3.org/2000/svg">
<path d="M15.0314 6.59961C15.6305 6.94463 16.1163 7.45654 16.4295 8.07291C16.7428 8.68929 16.8699 9.3835 16.7953 10.0709C16.7208 10.7582 16.4479 11.4091 16.0098 11.944C15.5718 12.4789 14.9875 12.8748 14.3284 13.0834C14.0954 14.1406 13.5083 15.0866 12.6644 15.7647C11.8204 16.4428 10.7702 16.8123 9.68756 16.8121H7.90631C7.74884 16.8121 7.59782 16.7496 7.48647 16.6382C7.37512 16.5269 7.31256 16.3758 7.31256 16.2184C7.31256 16.0609 7.37512 15.9099 7.48647 15.7985C7.59782 15.6872 7.74884 15.6246 7.90631 15.6246H9.68756C10.4246 15.6248 11.1435 15.3966 11.7454 14.9712C12.3472 14.5459 12.8024 13.9444 13.0482 13.2496H12.6564C12.4989 13.2496 12.3479 13.1871 12.2365 13.0757C12.1252 12.9644 12.0626 12.8133 12.0626 12.6559V6.71836C12.0626 6.56089 12.1252 6.40987 12.2365 6.29852C12.3479 6.18717 12.4989 6.12461 12.6564 6.12461H13.2501C13.4425 6.12461 13.6313 6.14005 13.8165 6.16974C13.6829 4.85267 13.0651 3.63211 12.0829 2.74454C11.1006 1.85696 9.82386 1.36557 8.50006 1.36557C7.17623 1.36557 5.89952 1.85696 4.91731 2.74454C3.93509 3.63211 3.3173 4.85267 3.18362 6.16974C3.37094 6.13971 3.56035 6.12462 3.75006 6.12461H4.34381C4.50128 6.12461 4.65231 6.18717 4.76366 6.29852C4.875 6.40987 4.93756 6.56089 4.93756 6.71836V12.6559C4.93756 12.8133 4.875 12.9644 4.76366 13.0757C4.65231 13.1871 4.50128 13.2496 4.34381 13.2496H3.75006C2.9651 13.2505 2.20183 12.9921 1.57883 12.5145C0.95584 12.037 0.508 11.3671 0.3049 10.6089C0.101811 9.8506 0.154821 9.0465 0.455711 8.32155C0.7566 7.59654 1.28851 6.99122 1.96881 6.59961C1.96881 4.86741 2.65692 3.20617 3.88177 1.98132C5.10662 0.756469 6.76787 0.0683594 8.50006 0.0683594C10.2323 0.0683594 11.8935 0.756469 13.1184 1.98132C14.3432 3.20617 15.0314 4.86741 15.0314 6.59961ZM3.75006 7.31211C3.12017 7.31211 2.51608 7.56233 2.07068 8.00773C1.62528 8.45313 1.37506 9.0572 1.37506 9.6871C1.37506 10.317 1.62528 10.9211 2.07068 11.3665C2.51608 11.8119 3.12017 12.0621 3.75006 12.0621V7.31211ZM15.6251 9.6871C15.6251 9.0572 15.3749 8.45313 14.9295 8.00773C14.4841 7.56233 13.88 7.31211 13.2501 7.31211V12.0621C13.88 12.0621 14.4841 11.8119 14.9295 11.3665C15.3749 10.9211 15.6251 10.317 15.6251 9.6871Z" fill="#1FAB3D"/>
</svg>
