<svg width="41" height="42" viewBox="0 0 41 42" fill="none" xmlns="http://www.w3.org/2000/svg">
<rect y="0.5" width="41" height="41" rx="20.5" fill="url(#paint0_linear_2241_4583)"/>
<path fill-rule="evenodd" clip-rule="evenodd" d="M21.7028 12.9657C21.7028 12.7096 21.6011 12.4639 21.42 12.2828C21.239 12.1017 20.9934 12 20.7373 12C20.4813 12 20.2357 12.1017 20.0546 12.2828C19.8736 12.4639 19.7719 12.7096 19.7719 12.9657V13.9365C19.7719 14.1926 19.8736 14.4382 20.0546 14.6193C20.2357 14.8004 20.4813 14.9022 20.7373 14.9022C20.9934 14.9022 21.239 14.8004 21.42 14.6193C21.6011 14.4382 21.7028 14.1926 21.7028 13.9365V12.9657ZM19.9804 15.7481C20.2022 15.6203 20.4656 15.5858 20.7128 15.6522C20.96 15.7186 21.1707 15.8805 21.2986 16.1022L26.265 24.7044C26.391 24.9261 26.4243 25.1886 26.3575 25.4347C26.2907 25.6808 26.1292 25.8905 25.9085 26.018C25.6877 26.1455 25.4254 26.1805 25.1789 26.1153C24.9324 26.0501 24.7217 25.8901 24.5928 25.6701L24.522 25.5465L20.5417 26.471C20.7196 27.1252 20.6537 27.8217 20.3564 28.431C20.059 29.0402 19.5504 29.5206 18.9253 29.7827C18.3001 30.0448 17.6011 30.0707 16.9582 29.8556C16.3154 29.6405 15.7727 29.199 15.4311 28.6135L15.4285 28.6096L14.9445 27.7714L13.0727 28.2053C12.9384 28.2365 12.7975 28.2237 12.671 28.1687C12.5444 28.1138 12.4389 28.0196 12.3699 27.9002L11.5859 26.5418C11.5171 26.4223 11.4885 26.2839 11.5042 26.1469C11.52 26.0099 11.5793 25.8816 11.6734 25.7808L19.6998 17.1928L19.6264 17.0679C19.5629 16.958 19.5217 16.8367 19.5052 16.7108C19.4886 16.585 19.497 16.4572 19.5299 16.3346C19.5628 16.212 19.6195 16.0971 19.6968 15.9965C19.7741 15.8959 19.8705 15.8115 19.9804 15.7481ZM16.9102 27.3143L18.6571 26.9087C18.7332 27.1119 18.7301 27.3362 18.6485 27.5372C18.5668 27.7382 18.4126 27.9011 18.2163 27.9936C18.0201 28.086 17.7963 28.1013 17.5894 28.0362C17.3824 27.9712 17.2075 27.8307 17.0994 27.6426L16.9102 27.3143ZM29.5 20.7632C29.5 21.0193 29.3983 21.2649 29.2172 21.446C29.0362 21.6271 28.7906 21.7289 28.5345 21.7289H27.5639C27.3078 21.7289 27.0623 21.6271 26.8812 21.446C26.7001 21.2649 26.5984 21.0193 26.5984 20.7632C26.5984 20.5071 26.7001 20.2614 26.8812 20.0803C27.0623 19.8992 27.3078 19.7975 27.5639 19.7975H28.5332C28.7893 19.7975 29.0349 19.8992 29.2159 20.0803C29.397 20.2614 29.5 20.5071 29.5 20.7632ZM13.9133 21.7289C14.1694 21.7289 14.415 21.6271 14.596 21.446C14.7771 21.2649 14.8788 21.0193 14.8788 20.7632C14.8788 20.5071 14.7771 20.2614 14.596 20.0803C14.415 19.8992 14.1694 19.7975 13.9133 19.7975H12.9427C12.6867 19.7975 12.4411 19.8992 12.26 20.0803C12.079 20.2614 11.9772 20.5071 11.9772 20.7632C11.9772 21.0193 12.079 21.2649 12.26 21.446C12.4411 21.6271 12.6867 21.7289 12.9427 21.7289H13.9133ZM16.7222 16.7485C16.5412 16.9294 16.2958 17.031 16.04 17.031C15.7841 17.031 15.5387 16.9294 15.3577 16.7485L14.5416 15.9322C14.4467 15.8438 14.3706 15.7372 14.3178 15.6188C14.2651 15.5003 14.2367 15.3724 14.2344 15.2428C14.2321 15.1131 14.256 14.9843 14.3045 14.8641C14.3531 14.7438 14.4254 14.6346 14.517 14.5429C14.6087 14.4512 14.7179 14.3789 14.8382 14.3303C14.9584 14.2818 15.0871 14.2579 15.2168 14.2602C15.3464 14.2625 15.4743 14.2909 15.5927 14.3437C15.7111 14.3964 15.8177 14.4725 15.9061 14.5674L16.7235 15.3824C16.8132 15.4721 16.8844 15.5786 16.933 15.6958C16.9815 15.813 17.0065 15.9386 17.0065 16.0655C17.0065 16.1924 16.9815 16.318 16.933 16.4352C16.8844 16.5524 16.812 16.6589 16.7222 16.7485ZM26.9331 15.9322C27.1037 15.7492 27.1965 15.507 27.1921 15.2569C27.1877 15.0067 27.0864 14.768 26.9095 14.5911C26.7326 14.4141 26.4939 14.3128 26.2438 14.3084C25.9937 14.304 25.7516 14.3968 25.5686 14.5674L24.7421 15.3915C24.561 15.5726 24.4593 15.8183 24.4593 16.0745C24.4593 16.2014 24.4842 16.327 24.5328 16.4442C24.5813 16.5614 24.6525 16.6679 24.7421 16.7576C24.8318 16.8473 24.9383 16.9184 25.0555 16.967C25.1726 17.0155 25.2982 17.0405 25.425 17.0405C25.6812 17.0405 25.9268 16.9387 26.108 16.7576L26.9331 15.9322Z" fill="#0B5544"/>
<defs>
<linearGradient id="paint0_linear_2241_4583" x1="0" y1="21" x2="41" y2="21" gradientUnits="userSpaceOnUse">
<stop stop-color="#1FC88F"/>
<stop offset="1" stop-color="#F4EE70"/>
</linearGradient>
</defs>
</svg>
