<svg width="32" height="33" viewBox="0 0 32 33" fill="none" xmlns="http://www.w3.org/2000/svg">
<path opacity="0.6" d="M26.6666 24.0833C26.6666 21.1367 21.8933 18.75 16 18.75C10.1066 18.75 5.33331 21.1367 5.33331 24.0833V26.75H26.6666V24.0833Z" fill="#FAFAFA"/>
<path opacity="0.5" d="M19.7712 6.97909C18.771 5.9789 17.4145 5.41699 16 5.41699C14.5854 5.41699 13.2289 5.9789 12.2287 6.97909C11.2285 7.97929 10.6666 9.33583 10.6666 10.7503C10.6666 12.1648 11.2285 13.5214 12.2287 14.5215C13.2289 15.5218 14.5854 16.0837 16 16.0837C17.4145 16.0837 18.771 15.5218 19.7712 14.5215C20.7714 13.5214 21.3333 12.1648 21.3333 10.7503C21.3333 9.33583 20.7714 7.97929 19.7712 6.97909Z" fill="#FAFAFA"/>
</svg>
