<svg width="20" height="20" viewBox="0 0 20 20" fill="none" xmlns="http://www.w3.org/2000/svg">
<rect width="20" height="20" rx="4" fill="url(#paint0_linear_6668_159098)"/>
<path d="M4 10.0249C4 10.2902 4.10252 10.5445 4.285 10.7321C4.46748 10.9196 4.71498 11.0249 4.97304 11.0249L12.6795 11.0249L10.1237 13.6516C9.9518 13.8412 9.85823 14.0919 9.86268 14.351C9.86713 14.61 9.96924 14.8572 10.1475 15.0404C10.3258 15.2237 10.5663 15.3286 10.8184 15.3332C11.0705 15.3377 11.3145 15.2416 11.4989 15.0649L15.7154 10.7316C15.8976 10.5441 16 10.2899 16 10.0249C16 9.75994 15.8976 9.50578 15.7154 9.31828L11.4989 4.98494C11.4098 4.88669 11.3024 4.80789 11.183 4.75324C11.0637 4.69858 10.9348 4.66919 10.8042 4.66682C10.6735 4.66445 10.5438 4.68915 10.4226 4.73945C10.3014 4.78974 10.1914 4.8646 10.099 4.95956C10.0066 5.05452 9.93374 5.16763 9.8848 5.29215C9.83586 5.41666 9.81183 5.55004 9.81413 5.68431C9.81644 5.81858 9.84504 5.951 9.89822 6.07366C9.9514 6.19633 10.0281 6.30673 10.1237 6.39828L12.6795 9.02494L4.97304 9.02494C4.43592 9.02494 4 9.47294 4 10.0249Z" fill="white"/>
<defs>
<linearGradient id="paint0_linear_6668_159098" x1="0" y1="0" x2="20" y2="20" gradientUnits="userSpaceOnUse">
<stop stop-color="#16A1D8"/>
<stop offset="1" stop-color="#03D9CF"/>
</linearGradient>
</defs>
</svg>
