<svg width="160" height="106" viewBox="0 0 160 106" fill="none" xmlns="http://www.w3.org/2000/svg">
<g clip-path="url(#clip0_5818_7617)">
<path d="M157.226 25.2561L154.724 37.3906L153.113 35.8195L150.373 37.7756L148.278 35.1727L143.583 38.5925L139.569 31.8706L135.093 34.4971L133.318 32.0435L127.633 35.2512L125.923 31.5852L129.908 12.2574L151.27 16.675L157.226 25.2561Z" fill="#929292"/>
<path d="M151.269 16.675L157.225 25.2561L149.815 23.7242L151.269 16.675Z" fill="#707070"/>
<path d="M154.19 39.8181L150.522 57.6218L121.748 51.675L125.39 34.01L127.1 37.6787L132.787 34.4709L134.559 36.9219L139.038 34.2955L143.049 41.0174L147.747 37.5975L149.839 40.2004L152.582 38.2443L154.19 39.8181Z" fill="#929292"/>
<path d="M113.007 37.731L83.6836 39.5483L81.354 1.84857L103.129 0.5L111.122 7.21405L113.007 37.731Z" fill="#929292"/>
<path d="M103.129 0.5L111.122 7.21405L103.571 7.68278L103.129 0.5Z" fill="#707070"/>
<path d="M94.9997 25.8636L94.8873 25.0126C94.5918 23.2503 95.0729 21.2785 96.6025 19.2177C97.9804 17.3951 98.7282 16.0675 98.6471 14.588C98.553 12.9121 97.4418 11.8542 95.3736 11.938C94.1918 12.0034 92.9028 12.4722 92.1184 13.1425L91.2163 11.1184C92.2543 10.2699 94.095 9.63887 95.8338 9.54198C99.6041 9.32987 101.44 11.5661 101.581 14.0617C101.706 16.2953 100.551 17.9738 99.0811 19.9351C97.7346 21.7236 97.2901 23.1979 97.481 24.8686L97.562 25.7196L95.0049 25.8636H94.9997ZM94.5343 30.5037C94.4663 29.2887 95.2376 28.3879 96.3854 28.3251C97.5333 28.2596 98.3673 29.0714 98.4353 30.2864C98.5007 31.436 97.7947 32.3656 96.5815 32.4336C95.4337 32.4991 94.597 31.6559 94.5317 30.5064L94.5343 30.5037Z" fill="#707070"/>
<path d="M21.6645 19.4533L18.7126 18.1126L18.3047 19.0186C18.1844 19.2857 17.923 19.4533 17.6328 19.4664C17.4707 19.4742 17.3112 19.49 17.1517 19.5135C16.8641 19.558 16.5764 19.4402 16.4065 19.2045L15.8287 18.398L13.1931 20.2886L13.7709 21.0951C13.9409 21.3308 13.9566 21.6424 13.8232 21.9017C13.7474 22.0457 13.682 22.1923 13.6245 22.3442C13.5199 22.6165 13.2742 22.8103 12.9839 22.8365L11.9956 22.9334L12.3146 26.1621L13.3055 26.0626C13.5958 26.0338 13.8703 26.1778 14.0298 26.424C14.0716 26.492 14.1161 26.5575 14.1631 26.623C14.2102 26.6884 14.2573 26.7513 14.3069 26.8141C14.4874 27.042 14.537 27.3483 14.4168 27.6128L14.0036 28.5241L16.9556 29.8648L17.3661 28.9588C17.4863 28.6917 17.7478 28.5241 18.038 28.511C18.1975 28.5031 18.3596 28.4874 18.5191 28.4638C18.8067 28.4193 19.0943 28.5372 19.2643 28.7728L19.8421 29.5794L22.4777 27.6887L21.8998 26.8822C21.7299 26.6465 21.7142 26.3349 21.8476 26.0757C21.9208 25.9317 21.9887 25.785 22.0463 25.6358C22.1508 25.3634 22.3966 25.1697 22.6868 25.1409L23.6752 25.044L23.3562 21.8153L22.3652 21.9121C22.075 21.9409 21.8031 21.7969 21.6436 21.5508C21.6018 21.4827 21.5547 21.4172 21.5076 21.3518C21.4606 21.2863 21.4135 21.2235 21.3638 21.1606C21.1808 20.9328 21.1338 20.6238 21.254 20.3593L21.6645 19.4533ZM19.9912 22.4411C20.8435 23.6352 20.5716 25.2927 19.3793 26.149C18.1871 27.0027 16.5294 26.7303 15.6744 25.5389C14.822 24.3448 15.0939 22.682 16.2862 21.8283C17.4785 20.9747 19.1362 21.2496 19.9885 22.4437L19.9912 22.4411Z" fill="#929292"/>
<path d="M154.985 62.2934L153.018 63.4298L153.366 64.0321C153.468 64.2102 153.458 64.4275 153.348 64.5977C153.285 64.692 153.23 64.7915 153.178 64.891C153.086 65.0717 152.901 65.1895 152.699 65.1895H152.004V67.4624H152.699C152.903 67.4624 153.086 67.5803 153.178 67.761C153.23 67.8631 153.285 67.96 153.348 68.0542C153.46 68.2244 153.468 68.4444 153.366 68.6199L153.018 69.2221L154.985 70.3586L155.332 69.7537C155.434 69.5756 155.628 69.4787 155.834 69.4892C155.889 69.4918 155.947 69.4945 156.002 69.4945C156.057 69.4945 156.114 69.4945 156.169 69.4892C156.373 69.4787 156.566 69.5756 156.668 69.7511L157.019 70.3586L158.985 69.2221L158.637 68.6172C158.535 68.4392 158.546 68.2218 158.658 68.0516C158.721 67.9574 158.776 67.8605 158.828 67.7583C158.92 67.5777 159.103 67.4598 159.307 67.4598H160.002V65.1869H159.307C159.103 65.1869 158.92 65.0691 158.828 64.8884C158.776 64.7862 158.721 64.6894 158.658 64.5951C158.546 64.4249 158.535 64.2049 158.637 64.0295L158.985 63.4246L157.019 62.2881L156.671 62.893C156.569 63.0711 156.376 63.168 156.172 63.1575C156.117 63.1549 156.059 63.1522 156.004 63.1522C155.949 63.1522 155.892 63.1522 155.837 63.1575C155.633 63.168 155.437 63.0711 155.335 62.893L154.987 62.2881L154.985 62.2934ZM156.002 64.4668C157.029 64.4668 157.861 65.2995 157.861 66.3286C157.861 67.3577 157.029 68.1904 156.002 68.1904C154.974 68.1904 154.143 67.3551 154.143 66.3286C154.143 65.3021 154.977 64.4668 156.002 64.4668Z" fill="#929292"/>
<path d="M27.6311 9.77764L25.827 11.1576L26.2506 11.7102C26.3761 11.8725 26.3944 12.0898 26.3055 12.2758C26.2558 12.3779 26.214 12.4826 26.1748 12.59C26.1068 12.7812 25.9394 12.9226 25.7381 12.9487L25.0479 13.0378L25.3407 15.2924L26.031 15.2033C26.2323 15.1772 26.431 15.2688 26.546 15.439C26.6114 15.5333 26.6794 15.6223 26.7526 15.7087C26.8859 15.8632 26.9225 16.0779 26.8441 16.2691L26.5774 16.9107L28.6743 17.7826L28.941 17.1385C29.0195 16.9499 29.1999 16.8269 29.4038 16.8112C29.4587 16.8059 29.5136 16.8007 29.5712 16.7928C29.6261 16.785 29.681 16.7771 29.7359 16.7666C29.9372 16.73 30.1412 16.8007 30.264 16.963L30.6902 17.5208L32.4943 16.1408L32.0708 15.5857C31.9479 15.4233 31.9296 15.206 32.0185 15.02C32.0681 14.9179 32.11 14.8132 32.1492 14.7084C32.2172 14.5173 32.3845 14.3759 32.5858 14.3497L33.2761 14.2607L32.9833 12.0061L32.293 12.0951C32.0917 12.1213 31.893 12.0296 31.7779 11.862C31.7152 11.7678 31.6446 11.6787 31.5714 11.5923C31.438 11.4378 31.4014 11.2231 31.4799 11.0319L31.7465 10.3878L29.6496 9.51578L29.3829 10.1599C29.3045 10.3485 29.1241 10.4689 28.9227 10.4873C28.8678 10.4925 28.8103 10.4977 28.7554 10.5056C28.7005 10.5135 28.6456 10.5213 28.5907 10.5318C28.3894 10.5684 28.1828 10.4977 28.0599 10.3354L27.6363 9.78287L27.6311 9.77764ZM28.9201 11.8018C29.9372 11.6683 30.8706 12.3884 31.004 13.407C31.1373 14.4256 30.4183 15.3631 29.4012 15.494C28.3841 15.6276 27.4481 14.9074 27.3174 13.8862C27.184 12.8676 27.903 11.9327 28.9227 11.7992L28.9201 11.8018Z" fill="#929292"/>
<path d="M14.1712 68.8582C14.2731 66.3234 14.2339 63.786 14.0666 61.2564C13.724 56.0376 12.8664 50.858 11.6872 45.7675C11.0231 42.9001 10.2074 40.0825 9.35761 37.2675C9.33146 37.1838 9.1955 37.2073 9.21903 37.2964C11.8494 47.2208 14.009 57.4595 13.86 67.7767C13.8182 70.6624 13.4835 73.4983 13.2116 76.3683C13.2037 76.4442 13.3292 76.4756 13.3475 76.3971C13.8914 73.9408 14.0666 71.3694 14.1685 68.8634L14.1712 68.8582Z" fill="#929292"/>
<path d="M9.21892 37.2937C9.21892 37.2937 5.2316 47.4277 6.12581 49.808C7.0174 52.1909 8.8581 52.6989 8.8581 52.6989C8.8581 52.6989 6.41865 56.1868 8.12339 59.4574C9.82813 62.728 13.6141 62.5736 13.8651 66.2815C13.8651 66.2815 14.0769 50.7742 9.21892 37.2937Z" fill="#929292"/>
<path d="M13.4339 59.879C13.4391 59.8633 13.4365 59.845 13.4286 59.8267C12.8691 52.9372 11.6481 46.0686 9.56158 39.441C9.55635 39.4227 9.52236 39.4279 9.52759 39.4488C10.3172 42.4131 11.0205 45.393 11.6219 48.3887C11.1042 47.8545 10.427 47.5481 9.71845 47.3255C9.70538 47.3203 9.69754 47.3413 9.71061 47.3465C10.4479 47.666 11.1539 48.0352 11.6742 48.661C11.7919 49.2476 11.9043 49.8368 12.0141 50.4233C11.1225 49.4256 9.88841 48.9307 8.65168 48.462C8.63338 48.4542 8.62554 48.483 8.64122 48.4882C9.92762 49.0119 11.2114 49.6901 12.0847 50.8004C12.388 52.4815 12.6547 54.1705 12.8848 55.8621C12.2337 55.1813 11.431 54.723 10.5081 54.4978C10.4793 54.49 10.4636 54.5319 10.4924 54.5397C11.4389 54.8121 12.2546 55.3436 12.9031 56.0873C12.9083 56.0926 12.9135 56.0952 12.9188 56.0978C12.9998 56.6922 13.073 57.2893 13.1436 57.8863C12.6416 57.4568 12.0873 57.1321 11.4781 56.8808C11.4624 56.8729 11.452 56.8991 11.4703 56.9069C12.0899 57.1714 12.6468 57.5511 13.1384 58.012C13.1462 58.0172 13.1515 58.0172 13.1593 58.0198C13.2247 58.5881 13.2927 59.1537 13.3502 59.7245C12.4351 58.6221 11.3055 57.8234 9.96946 57.3076C9.94331 57.2971 9.93024 57.3364 9.95377 57.3495C11.2532 57.9151 12.3985 58.8133 13.2848 59.9183C13.3083 59.9497 13.3397 59.9524 13.3685 59.9445C13.4548 60.8165 13.5306 61.6911 13.596 62.5657C13.596 62.5788 13.6169 62.5788 13.6169 62.5657C13.5672 61.6701 13.5044 60.7746 13.4312 59.879H13.4339Z" fill="#272727"/>
<path d="M10.231 46.3174C9.54074 45.8408 8.66222 45.6392 7.836 45.5685C7.81508 45.5685 7.81508 45.5973 7.836 45.5999C8.6936 45.7282 9.41524 46.0398 10.2049 46.375C10.2388 46.3907 10.2624 46.3383 10.2336 46.3174H10.231Z" fill="#272727"/>
<path d="M10.7145 57.0483C10.168 56.7184 9.54312 56.5325 8.91561 56.433C8.89469 56.4304 8.89208 56.4644 8.91561 56.467C9.55096 56.5822 10.1157 56.81 10.6936 57.0929C10.7171 57.1059 10.738 57.0641 10.7145 57.051V57.0483Z" fill="#272727"/>
<path d="M24.6507 49.9729C22.9878 51.1434 21.3929 52.4946 20.0359 54.0134C18.59 55.6317 17.5363 57.4699 16.799 59.5098C15.2903 63.6891 14.4641 68.214 14.3883 72.6551C14.3465 75.1454 14.5661 77.6147 15.0995 80.0474C15.1178 80.1364 15.2511 80.1102 15.2381 80.0212C14.587 75.7398 14.6105 71.372 15.3113 67.1011C15.9963 62.9087 17.0709 58.3471 19.7326 54.9404C21.1811 53.0864 22.9878 51.6252 24.7736 50.1169C24.8678 50.0384 24.7475 49.9075 24.6507 49.9755V49.9729Z" fill="#929292"/>
<path d="M14.9767 69.6359C14.9767 69.6359 16.3468 67.3263 18.3392 65.3309C20.3341 63.3355 22.0127 61.9163 22.2716 60.5939C22.5304 59.2741 20.274 58.3 20.274 58.3C20.274 58.3 23.0324 58.7949 23.7881 57.6375C24.5437 56.4775 24.9071 49.7608 24.9071 49.7608C24.9071 49.7608 19.887 53.3509 17.5469 58.3838C15.2068 63.4167 14.9741 69.6385 14.9741 69.6385L14.9767 69.6359Z" fill="#929292"/>
<path d="M23.1734 51.4812C21.0607 53.5604 18.935 55.7731 17.6905 58.5043C17.2643 59.4391 16.9009 60.4106 16.5819 61.4004C16.5819 61.4004 16.5819 61.403 16.5819 61.4057C16.5165 61.6047 16.4538 61.8011 16.391 62.0027C16.3858 62.0132 16.3805 62.0236 16.3805 62.0341C15.7661 64.074 15.3321 66.182 14.9556 68.2402C14.9556 68.2533 14.9739 68.2611 14.9765 68.248C15.1935 67.2006 15.4314 66.1427 15.6981 65.0874C15.7086 65.0874 15.7164 65.0874 15.7269 65.0822C16.1531 64.9015 16.5845 64.7889 17.0447 64.747C17.0734 64.7444 17.0734 64.692 17.042 64.6946C16.5976 64.7155 16.1609 64.7941 15.74 64.9329C15.9831 63.9823 16.2472 63.0318 16.5453 62.097C17.5153 61.8587 18.5272 61.7304 19.5233 61.7068C19.5338 61.7068 19.5364 61.6911 19.5233 61.6911C18.5193 61.6439 17.5754 61.7304 16.5949 61.9399C16.6472 61.7801 16.6995 61.6204 16.7544 61.4607C17.4081 61.3114 18.067 61.1857 18.7363 61.1255C18.7494 61.1255 18.7468 61.1045 18.7363 61.1045C18.0801 61.1229 17.4342 61.1909 16.7963 61.3402C17.0682 60.5311 17.3636 59.7324 17.6931 58.9547C17.965 58.3105 18.2866 57.7004 18.6422 57.1112C19.1782 56.9907 19.6985 56.8729 20.2502 56.8231C20.2659 56.8231 20.2633 56.797 20.2502 56.797C19.7508 56.7655 19.2305 56.8022 18.7468 56.9462C19.0109 56.5194 19.288 56.1004 19.5861 55.6945C20.713 55.4458 21.853 55.2127 23.0034 55.43C23.0243 55.4327 23.0296 55.4012 23.0113 55.396C21.9157 55.108 20.828 55.2729 19.7351 55.4903C19.8554 55.3305 19.9757 55.176 20.0986 55.0189C20.7888 54.8042 21.4765 54.7021 22.2033 54.689C22.219 54.689 22.2216 54.668 22.2033 54.6654C21.5418 54.6026 20.8803 54.6654 20.2424 54.8409C21.1732 53.6835 22.2007 52.5941 23.2178 51.5179C23.2649 51.4681 23.2283 51.4393 23.1786 51.4891L23.1734 51.4812Z" fill="#272727"/>
<path d="M23.1158 56.0585C22.7864 56.0245 22.4491 55.9852 22.117 56.0245C22.0778 56.0297 22.0804 56.0952 22.1196 56.0952C22.4491 56.1056 22.7811 56.0795 23.1106 56.0978C23.1367 56.0978 23.1393 56.0611 23.1132 56.0585H23.1158Z" fill="#272727"/>
<path d="M19.5023 62.5762C18.9742 62.5709 18.4486 62.7123 17.9545 62.8878C17.9414 62.893 17.9492 62.914 17.9623 62.9087C18.4722 62.7856 18.9899 62.7385 19.5076 62.6521C19.5494 62.6442 19.5468 62.5762 19.5023 62.5762Z" fill="#272727"/>
<path d="M18.42 60.3242C18.2056 60.3137 17.9755 60.3504 17.7637 60.3844C17.7428 60.387 17.7428 60.4237 17.7637 60.4237C17.9781 60.4263 18.2108 60.4342 18.4226 60.3923C18.4592 60.3844 18.4592 60.3268 18.42 60.3242Z" fill="#272727"/>
<path d="M0.25845 57.1033C1.87429 57.6663 3.47707 58.3891 4.92557 59.3029C6.46821 60.2797 7.74677 61.5209 8.81354 63.0004C10.9994 66.0327 12.712 69.5049 13.797 73.0793C14.4062 75.0851 14.7958 77.1329 14.9292 79.2251C14.9344 79.3011 14.822 79.3115 14.8115 79.2356C14.3487 75.622 13.3212 72.0921 11.7707 68.7953C10.249 65.5614 8.3246 62.1205 5.38575 59.9785C3.78559 58.8133 1.98672 58.0486 0.193085 57.2421C0.0989577 57.2002 0.166938 57.0667 0.261065 57.0981L0.25845 57.1033Z" fill="#929292"/>
<path d="M12.6259 70.775C12.6259 70.775 10.9839 69.2221 8.91051 68.07C6.8371 66.9152 5.14804 66.1558 4.63558 65.1476C4.12049 64.1395 5.72326 62.8302 5.72326 62.8302C5.72326 62.8302 3.60541 63.8697 2.72689 63.1077C1.84837 62.3431 0.00244141 56.9907 0.00244141 56.9907C0.00244141 56.9907 4.89442 58.7347 7.94832 62.2646C11.0022 65.7944 12.6285 70.7776 12.6285 70.7776L12.6259 70.775Z" fill="#929292"/>
<path d="M12.3694 69.6699C9.92214 65.0717 6.65907 60.9107 2.18543 58.1638C2.18543 58.1638 2.1802 58.1638 2.18543 58.1665C3.36202 58.918 4.44709 59.7848 5.45895 60.7327C4.55429 60.7065 3.63132 60.8531 2.82863 61.2878C2.81033 61.2983 2.8234 61.3219 2.8417 61.3166C3.73591 61.0129 4.59612 60.8139 5.54785 60.8584C5.56092 60.8584 5.56877 60.8531 5.57923 60.8479C5.73872 60.9998 5.8956 61.1517 6.04986 61.3062C5.57923 61.3271 5.10336 61.3926 4.6458 61.4921C4.63273 61.4947 4.63796 61.513 4.64842 61.5104C5.1452 61.4135 5.6289 61.3821 6.13353 61.3873C6.95452 62.2122 7.718 63.0946 8.43964 64.0111C8.11281 63.964 7.77029 63.9902 7.45653 64.0818C7.433 64.0897 7.43823 64.1211 7.46438 64.1185C7.81997 64.074 8.15987 64.0792 8.51285 64.1028C8.64619 64.273 8.78215 64.4432 8.91289 64.616C7.90625 64.5558 6.92053 64.6527 5.94528 64.9041C5.92959 64.9067 5.93482 64.9303 5.9505 64.9276C6.95975 64.7286 7.97423 64.6658 8.99917 64.7286C9.12467 64.8936 9.24233 65.0638 9.36522 65.2314C8.76385 65.2131 8.1834 65.289 7.59772 65.433C7.57419 65.4383 7.58204 65.4723 7.60557 65.4697C8.20693 65.3335 8.81876 65.2969 9.43581 65.3257C9.96135 66.051 10.466 66.7947 10.9497 67.5462C10.6935 67.4939 10.4241 67.5227 10.1731 67.5934C10.1601 67.596 10.1627 67.6169 10.1784 67.6143C10.466 67.5803 10.7353 67.6169 11.0177 67.6536C11.4543 68.3318 11.8753 69.0179 12.2779 69.7092C12.3119 69.7668 12.406 69.7249 12.3747 69.6621L12.3694 69.6699Z" fill="#272727"/>
<path d="M8.5655 65.8572C8.08702 65.8153 7.6007 65.8913 7.14314 66.0301C7.13006 66.0353 7.13268 66.0536 7.14837 66.051C7.619 65.9646 8.08441 65.9306 8.56027 65.907C8.59165 65.907 8.59687 65.8599 8.56288 65.8572H8.5655Z" fill="#272727"/>
<path d="M4.29837 60.2509C4.08136 60.2273 3.8565 60.2535 3.6421 60.2901C3.61595 60.2954 3.6238 60.332 3.64994 60.3294C3.86434 60.3059 4.07874 60.3137 4.29314 60.3085C4.32713 60.3085 4.33498 60.2561 4.29837 60.2535V60.2509Z" fill="#272727"/>
<path d="M18.9352 85.9837H7.89355L9.46757 74.4331L9.87022 71.4715H16.9585L17.3612 74.4331L18.9352 85.9837Z" fill="#707070"/>
<path d="M17.3614 74.4331H9.46777L9.87043 71.4715H16.9587L17.3614 74.4331Z" fill="#A1A1A1"/>
<path d="M17.9706 70.445H8.85596V72.9536H17.9706V70.445Z" fill="#707070"/>
<path d="M0.873047 85.9837L20.7469 85.9182L40.6207 85.8973L80.3684 85.8528L120.116 85.8947L139.99 85.9182L159.864 85.9837L139.99 86.0466L120.116 86.0701L80.3684 86.1146L40.6207 86.0701L20.7469 86.0466L0.873047 85.9837Z" fill="#263238"/>
<path d="M80.8915 105.5C122.297 105.5 155.864 101.816 155.864 97.2724C155.864 92.7284 122.297 89.0448 80.8915 89.0448C39.4856 89.0448 5.91943 92.7284 5.91943 97.2724C5.91943 101.816 39.4856 105.5 80.8915 105.5Z" fill="#383838"/>
<path d="M63.4388 95.9081C62.8296 96.115 45.3612 96.1752 44.6919 95.7562C44.4383 95.5991 44.2814 93.0512 44.1768 89.9665C44.1533 89.3014 44.135 88.6127 44.1193 87.9136L42.7021 78.5809L54.3791 78.505L55.4825 87.8376L55.438 89.8906C55.438 89.8906 62.1367 92.8627 62.8192 93.4021C63.499 93.9416 64.0454 95.696 63.4362 95.9029L63.4388 95.9081Z" fill="#EB9481"/>
<path d="M63.439 95.9081C62.8298 96.115 45.3614 96.1752 44.6921 95.7562C44.3835 95.5624 44.2162 91.8414 44.1221 87.9162L55.4853 87.8429L55.4408 89.8958C55.4408 89.8958 62.1395 92.8679 62.8219 93.4074C63.5018 93.9468 64.0482 95.7012 63.439 95.9081Z" fill="white"/>
<path d="M63.4388 95.9081C62.8296 96.115 45.3612 96.1752 44.6918 95.7562C44.4382 95.5991 44.2813 93.0512 44.1768 89.9665L55.4406 89.8932C55.4406 89.8932 62.1393 92.8653 62.8217 93.4047C63.5015 93.9442 64.048 95.6986 63.4388 95.9055V95.9081Z" fill="#A6A6A6"/>
<path d="M63.1853 95.209C60.2569 95.1461 48.4388 95.1749 45.5391 95.3373C45.5156 95.3373 45.5156 95.3556 45.5391 95.3556C48.4414 95.4813 60.2569 95.3556 63.1853 95.2561C63.2481 95.2561 63.2481 95.209 63.1853 95.209Z" fill="#263238"/>
<path d="M61.6972 92.7815C61.0017 92.7554 60.3245 93.0879 59.948 93.5043C59.5846 93.9023 59.2761 94.4653 59.2996 95.0728C59.2996 95.0911 59.3336 95.0911 59.3362 95.0728C59.4983 93.9232 60.5389 92.9125 61.6998 92.8182C61.7234 92.8182 61.7234 92.7815 61.6998 92.7815H61.6972Z" fill="#263238"/>
<path d="M56.5777 90.1839C55.4064 90.1708 54.0494 90.5898 53.3225 91.5534C53.2937 91.5901 53.3487 91.6294 53.3826 91.611C54.4416 91.0611 55.4456 90.65 56.5986 90.3279C56.6797 90.3044 56.6614 90.1839 56.5777 90.1839Z" fill="#263238"/>
<path d="M57.485 90.5348C56.3136 90.5217 54.9566 90.9407 54.2297 91.9043C54.201 91.941 54.2559 91.9802 54.2899 91.9619C55.3462 91.412 56.3528 91.0009 57.5059 90.6788C57.5869 90.6552 57.5686 90.5348 57.485 90.5348Z" fill="#263238"/>
<path d="M58.3897 90.8857C57.2184 90.8726 55.8614 91.2915 55.1345 92.2552C55.1058 92.2918 55.1607 92.3311 55.1947 92.3128C56.251 91.7629 57.2576 91.3518 58.4107 91.0297C58.4917 91.0061 58.4734 90.8857 58.3897 90.8857Z" fill="#263238"/>
<path d="M59.297 91.2339C58.1256 91.2208 56.7686 91.6398 56.0417 92.6035C56.013 92.6401 56.0679 92.6794 56.1019 92.6611C57.1582 92.1112 58.1648 91.7 59.3179 91.378C59.3989 91.3544 59.3806 91.2339 59.297 91.2339Z" fill="#263238"/>
<path d="M46.2762 92.5511C44.9611 92.5589 44.9715 94.6067 46.2893 94.5988C47.6045 94.591 47.594 92.5432 46.2762 92.5511Z" fill="#263238"/>
<path d="M57.8331 87.0468C57.237 86.5572 56.4918 87.0416 56.1284 87.5522C55.5401 88.3823 55.1348 89.545 55.0747 90.5584C55.0747 90.5845 55.093 90.5924 55.1113 90.5924C55.1375 90.6762 55.2368 90.7469 55.3231 90.6867C56.1546 90.1053 57.1167 89.5869 57.7469 88.7672C58.1155 88.288 58.3979 87.5103 57.8331 87.0468ZM56.4056 89.5476C56.0029 89.8435 55.5898 90.1184 55.1976 90.4274C55.4042 89.8409 55.5846 89.2491 55.8513 88.6861C55.9794 88.4163 56.1127 88.1414 56.2774 87.8926C56.5311 87.5051 57.6789 86.5179 57.7992 87.7957C57.8671 88.5001 56.8866 89.1941 56.4056 89.5476Z" fill="#263238"/>
<path d="M52.1643 91.0061C53.1867 91.1606 54.2377 90.8647 55.2392 90.705C55.3437 90.6893 55.3673 90.5688 55.3254 90.4903C55.3411 90.4772 55.3464 90.4588 55.3281 90.4405C54.5829 89.7544 53.4873 89.1967 52.4886 89.0055C51.8715 88.8877 50.9982 89.0579 50.9093 89.8251C50.8257 90.5505 51.5682 90.9145 52.1643 91.0035V91.0061ZM51.4532 90.3384C50.6557 89.3355 52.1643 89.249 52.6167 89.3512C52.9069 89.4193 53.1945 89.5214 53.4717 89.6287C54.0547 89.8513 54.5933 90.1525 55.1503 90.43C54.6535 90.4772 54.1645 90.5688 53.6704 90.6343C53.0795 90.7128 51.8924 90.8935 51.4532 90.3384Z" fill="#263238"/>
<path d="M25.5449 35.4502C25.5449 35.4502 39.107 58.5566 39.4705 60.1775C40.0274 62.6704 42.9872 87.2877 42.9872 87.2877L57.0983 87.0337C57.0983 87.0337 54.6667 65.3283 52.3632 58.1769C50.7029 53.0262 38.7358 35.9425 38.7358 35.9425L25.5475 35.4476L25.5449 35.4502Z" fill="#37474F"/>
<path d="M55.8142 84.8681C53.7878 84.8524 46.6054 84.7713 43.9097 85.0253C43.8888 85.0253 43.8888 85.0619 43.9097 85.0645C44.8379 85.1981 53.7904 84.9912 55.8142 84.9257C55.8534 84.9257 55.8508 84.8708 55.8142 84.8708V84.8681Z" fill="#263238"/>
<path d="M27.8587 37.5713C28.7476 38.967 29.6863 40.3339 30.5936 41.7191C31.5035 43.1043 32.4081 44.4896 33.3023 45.8853C35.0881 48.6715 36.8295 51.4864 38.5368 54.3197C39.3369 55.6474 40.1004 56.9907 40.6521 58.4388C41.1959 59.8738 41.5672 61.369 41.8417 62.8747C42.1189 64.3908 42.2993 65.9227 42.4719 67.4546C42.6549 69.0859 42.8353 70.7147 43.0183 72.3461C43.3896 75.6821 43.7609 79.0182 44.1348 82.3543C44.1792 82.7628 44.2263 83.1739 44.2655 83.5824C44.2707 83.6426 44.1635 83.6531 44.1557 83.5929C43.74 80.2778 43.3948 76.9548 43.0183 73.6344C42.8301 71.9821 42.6418 70.3298 42.4562 68.6774C42.281 67.1403 42.1163 65.6032 41.8783 64.074C41.6456 62.5735 41.3397 61.0783 40.8848 59.625C40.4089 58.1062 39.7317 56.6817 38.9343 55.3017C37.3001 52.4763 35.5692 49.7006 33.8383 46.9301C32.0918 44.1361 30.3321 41.3525 28.5045 38.6082C28.2796 38.2704 28.0522 37.9326 27.8168 37.6001C27.7985 37.5739 27.843 37.5503 27.8613 37.5765L27.8587 37.5713Z" fill="#263238"/>
<path d="M29.9897 97.2724C29.3465 97.2331 12.7331 90.4929 12.2703 89.8539C12.2546 89.833 12.2468 89.7911 12.2441 89.7309C12.2468 89.16 13.3972 87.1568 14.3594 84.5277C14.4195 84.3601 14.8483 83.5798 15.4445 82.5271C17.0812 79.6388 19.9756 74.6923 19.9756 74.6923L30.8342 79.013L25.6363 86.8059L24.8284 88.6913C24.8284 88.6913 29.9243 93.9651 30.3557 94.7219C30.7845 95.476 30.6329 97.309 29.9923 97.2724H29.9897Z" fill="#EB9481"/>
<path d="M29.9897 97.2724C29.3465 97.2331 12.7331 90.4929 12.2703 89.8539C12.2546 89.833 12.2468 89.7911 12.2441 89.7309C12.2468 89.16 13.3972 87.1568 14.3594 84.5277C14.4195 84.3601 14.8483 83.5798 15.4445 82.5271L25.6363 86.8033L24.8284 88.6887C24.8284 88.6887 29.9243 93.9625 30.3557 94.7193C30.7845 95.4734 30.6329 97.3064 29.9923 97.2698L29.9897 97.2724Z" fill="white"/>
<path d="M29.9895 97.2698C29.3463 97.2331 12.7356 90.4903 12.2728 89.8513C12.0976 89.6104 12.8401 87.3375 14.3619 84.5277L24.8282 88.6913C24.8282 88.6913 29.9242 93.9625 30.3556 94.7193C30.7844 95.4734 30.6327 97.3064 29.9895 97.2698Z" fill="#A6A6A6"/>
<path d="M30.0155 96.5287C27.325 95.3713 16.3593 90.9564 13.6113 90.0189C13.5877 90.0111 13.5825 90.0268 13.6034 90.0372C16.2468 91.2418 27.2466 95.5677 29.9972 96.5758C30.0547 96.5968 30.073 96.5549 30.0155 96.5313V96.5287Z" fill="#263238"/>
<path d="M29.5447 93.719C28.9094 93.4335 28.159 93.4885 27.6517 93.7321C27.1654 93.9651 26.6686 94.3684 26.4621 94.9418C26.4568 94.9576 26.4856 94.9706 26.496 94.9549C27.0765 93.952 28.4204 93.4047 29.5316 93.753C29.5552 93.7609 29.5656 93.7294 29.5447 93.719Z" fill="#263238"/>
<path d="M25.7718 89.3852C24.6893 88.9348 23.2748 88.8117 22.242 89.4323C22.2028 89.4559 22.2368 89.5135 22.276 89.5083C23.463 89.3957 24.5481 89.3931 25.7378 89.5266C25.8214 89.5371 25.8502 89.4166 25.7718 89.3852Z" fill="#263238"/>
<path d="M26.4807 90.0503C25.3983 89.5973 23.9838 89.4768 22.951 90.0975C22.9118 90.121 22.9458 90.1786 22.985 90.1734C24.172 90.0608 25.2571 90.0582 26.4468 90.1917C26.5304 90.2022 26.5592 90.0817 26.4807 90.0503Z" fill="#263238"/>
<path d="M27.1917 90.7154C26.1092 90.265 24.6947 90.142 23.6619 90.7626C23.6227 90.7861 23.6567 90.8438 23.6959 90.8385C24.883 90.7259 25.968 90.7233 27.1577 90.8568C27.2414 90.8673 27.2701 90.7469 27.1917 90.7154Z" fill="#263238"/>
<path d="M27.9002 91.3805C26.8177 90.9275 25.4032 90.8071 24.3704 91.4277C24.3312 91.4512 24.3652 91.5089 24.4044 91.5036C25.5915 91.391 26.6765 91.3884 27.8662 91.522C27.9499 91.5324 27.9786 91.412 27.9002 91.3805Z" fill="#263238"/>
<path d="M15.337 87.7093C14.1159 87.2223 13.3577 89.1233 14.5814 89.6104C15.8024 90.0974 16.5606 88.1964 15.337 87.7093Z" fill="#263238"/>
<path d="M28.1118 86.9499C27.7432 86.2717 26.8725 86.4393 26.3417 86.7797C25.4841 87.327 24.6762 88.254 24.2396 89.1705C24.2291 89.194 24.2422 89.2097 24.2605 89.215C24.2526 89.3014 24.318 89.4061 24.42 89.3826C25.4083 89.1574 26.496 89.0369 27.385 88.5158C27.9053 88.2094 28.4596 87.5941 28.1118 86.9525V86.9499ZM25.8502 88.7305C25.3665 88.8536 24.8801 88.9531 24.3991 89.0919C24.8095 88.6258 25.1991 88.1466 25.6593 87.7224C25.8789 87.5208 26.1064 87.3165 26.3496 87.1463C26.7287 86.8818 28.1615 86.4 27.7955 87.6281C27.5941 88.3063 26.4254 88.5813 25.8476 88.7279L25.8502 88.7305Z" fill="#263238"/>
<path d="M21.3743 88.4896C22.2633 89.016 23.3484 89.1364 24.3367 89.3669C24.4387 89.3904 24.5067 89.2883 24.4988 89.2019C24.5171 89.1967 24.5302 89.181 24.5197 89.1574C24.0857 88.2409 23.2804 87.3113 22.4228 86.7614C21.8946 86.421 21.0213 86.2508 20.6527 86.9263C20.3023 87.5679 20.854 88.1833 21.3743 88.4896ZM20.9664 87.6046C20.603 86.3738 22.0358 86.8609 22.4149 87.128C22.6581 87.2982 22.8856 87.5024 23.1052 87.7067C23.5628 88.1309 23.9497 88.6127 24.3602 89.0788C23.8818 88.9374 23.3954 88.8379 22.9117 88.7122C22.3365 88.563 21.1678 88.2828 20.9691 87.6046H20.9664Z" fill="#263238"/>
<path d="M26.4758 86.3686L14.3203 81.4535C14.3203 81.4535 29.3911 59.2636 29.5009 57.6113C29.6002 56.1475 22.98 43.416 22.7185 39.7054C22.4361 35.7016 24.3631 32.6012 26.4784 30.6792L39.0182 36.0158C39.0182 36.0158 37.6952 38.1369 35.6113 39.3153C35.6113 39.3153 42.0407 54.0317 41.6772 58.5566C41.3112 63.1051 26.4758 86.3686 26.4758 86.3686Z" fill="#37474F"/>
<path d="M27.0143 84.0538C25.2572 83.297 25.7723 83.4882 24.0048 82.7523C23.1394 82.391 17.4604 80.0264 16.595 79.8326C16.5767 79.8274 16.5636 79.8588 16.5793 79.8693C17.3349 80.3328 23.0557 82.5978 23.929 82.9435C25.7096 83.6453 25.2049 83.4253 26.9934 84.1088C27.0273 84.1219 27.0483 84.0721 27.0143 84.0564V84.0538Z" fill="#263238"/>
<path d="M37.6743 39.0482C36.367 39.3284 35.0858 39.7918 33.8543 40.2894C33.8073 40.3077 33.8282 40.381 33.8805 40.3653C35.1617 39.9909 36.4664 39.64 37.724 39.1974C37.8234 39.1634 37.7737 39.0272 37.6743 39.0482Z" fill="#263238"/>
<path d="M36.1865 38.5323C36.0636 38.747 35.959 38.9748 35.8649 39.2053C35.7917 39.3833 35.7002 39.5745 35.7002 39.7683C35.7002 39.8049 35.7499 39.8154 35.7734 39.7918C35.9198 39.6478 35.9957 39.4383 36.0872 39.2603C36.1944 39.0534 36.3042 38.8465 36.4062 38.637C36.4741 38.4983 36.2597 38.3988 36.1839 38.5297L36.1865 38.5323Z" fill="#263238"/>
<path d="M36.3383 37.3513C36.4141 37.1575 36.4925 36.9664 36.5736 36.7726C36.6572 36.5736 36.754 36.3798 36.8246 36.1756C36.835 36.1442 36.8873 36.1651 36.8743 36.1965C36.7984 36.3903 36.7488 36.5972 36.686 36.7962C36.6233 36.9952 36.5605 37.1942 36.4925 37.3932C36.3696 37.7624 36.2206 38.129 36.0611 38.4852C36.2651 38.4825 36.4768 38.4747 36.6625 38.3804C36.8638 38.2783 36.9867 38.0636 37.086 37.8698C37.1959 37.6525 37.2978 37.4325 37.4129 37.2178C37.5384 36.9795 37.677 36.7464 37.7606 36.4898C37.7711 36.4584 37.8208 36.4793 37.8103 36.5108C37.622 37.0397 37.4364 37.5713 37.141 38.0583C37.0259 38.2495 36.9318 38.4511 36.72 38.5244C36.4925 38.6056 36.2415 38.5899 36.0036 38.5716C35.9748 38.5794 35.9356 38.5611 35.9461 38.5244C36.0585 38.129 36.184 37.7284 36.3383 37.3461V37.3513Z" fill="#263238"/>
<path d="M35.8046 39.7971C36.2491 40.7424 36.6413 41.6851 37.0597 42.6278C37.4676 43.5495 37.8467 44.4817 38.218 45.4166C38.9657 47.3098 39.6351 49.2371 40.2234 51.1853C40.5136 52.149 40.7829 53.1205 41.0235 54.0972C41.2666 55.0765 41.5019 56.0664 41.6039 57.0745C41.7059 58.0853 41.6327 59.083 41.3529 60.0597C41.0679 61.0495 40.6914 61.9163 40.2469 62.8433C39.975 63.4089 39.8809 63.3329 40.0116 63.0475C40.3855 62.2357 41.366 59.7769 41.2954 57.7108C41.2614 56.7132 41.0574 55.7312 40.8326 54.7623C40.6025 53.7725 40.3437 52.7905 40.0613 51.8164C39.5044 49.8944 38.8429 48.0116 38.163 46.1315C37.7813 45.0788 37.3734 44.0366 36.9865 42.9839C36.5969 41.926 36.1942 40.9728 35.7628 39.8154C35.7524 39.784 35.7968 39.7683 35.8099 39.7971H35.8046Z" fill="#263238"/>
<path d="M26.5776 36.6705C26.7946 36.5893 27.0979 36.7229 27.3202 36.7595C27.6052 36.8067 27.8928 36.8355 28.1804 36.8459C28.4654 36.8564 28.7504 36.8459 29.0354 36.8171C29.3178 36.7909 29.608 36.7543 29.8537 36.5998C30.2695 36.3406 30.6146 35.8849 30.897 35.4895C31.2055 35.0574 31.5271 34.5599 31.7101 34.0598C31.7206 34.0283 31.765 34.0493 31.7572 34.0807C31.6657 34.3714 31.5977 34.6673 31.4801 34.9527C31.3702 35.2198 31.229 35.4764 31.08 35.7252C30.8002 36.1861 30.4786 36.681 29.9976 36.9559C29.4929 37.244 28.8445 37.2256 28.2824 37.1942C27.9581 37.1759 27.6339 37.1314 27.3149 37.0659C27.0849 37.0161 26.6979 36.9795 26.5515 36.7779C26.5253 36.7412 26.5384 36.6862 26.5828 36.6705H26.5776Z" fill="#263238"/>
<path d="M17.7897 79.1335C19.7873 76.1064 21.7482 73.0531 23.6726 69.9789C25.6022 66.8968 27.4978 63.7912 29.3673 60.6698C29.8144 59.9235 30.3295 59.1772 30.6171 58.3498C30.9308 57.4516 30.753 56.5796 30.468 55.6998C29.9477 54.0867 29.3019 52.5182 28.6012 50.9758C27.9005 49.4282 27.1448 47.9068 26.4023 46.3802C25.665 44.8667 24.8832 43.3453 24.3236 41.7532C23.7903 40.2318 23.5863 38.6554 23.9968 37.079C24.4021 35.5131 25.2806 34.1095 26.1983 32.7976C26.4415 32.452 26.6873 32.1089 26.9304 31.7633C26.9487 31.7371 26.988 31.7685 26.9697 31.7947C25.9578 33.1616 24.9721 34.6097 24.3786 36.2149C24.0857 37.0083 23.8948 37.8436 23.8765 38.6894C23.8582 39.5483 24.0177 40.402 24.2714 41.2216C24.7629 42.8137 25.5395 44.322 26.2637 45.8172C27.0036 47.3465 27.7619 48.8652 28.4757 50.4076C29.1921 51.9578 29.8641 53.5342 30.4158 55.1525C30.6615 55.8726 30.9361 56.6267 30.9178 57.3992C30.8995 58.245 30.4968 59.007 30.0785 59.7193C28.2613 62.8249 26.3735 65.8887 24.4648 68.9367C22.5483 71.9952 20.5926 75.0328 18.6054 78.0468C18.3544 78.4265 18.1034 78.8061 17.8524 79.1858C17.8211 79.233 17.7531 79.178 17.7844 79.1309L17.7897 79.1335Z" fill="#263238"/>
<path d="M39.7133 21.9017C40.8454 24.3893 46.561 27.8171 49.2384 28.1863C51.1654 28.4508 57.0143 28.5424 59.0197 28.236C61.3703 27.8773 59.574 21.5246 58.1857 21.6869C54.3683 22.1347 51.1261 22.6323 50.1091 22.6323C48.8645 22.6323 42.1318 20.4667 41.3187 20.1629C39.3341 19.4166 39.0701 20.4929 39.7133 21.9017Z" fill="#EB9481"/>
<path d="M39.7501 22.5616C41.1829 24.6853 45.9467 28.1575 45.9467 28.1575L46.6082 26.6911L48.7967 21.8441C48.7967 21.8441 44.4224 20.4615 41.5437 19.8461C41.1541 19.7623 40.8116 19.7126 40.5135 19.6995C38.6754 19.6 38.5159 20.7391 39.7527 22.5642L39.7501 22.5616Z" fill="#8139FF"/>
<path d="M39.7501 22.5616C41.1829 24.6852 45.9467 28.1575 45.9467 28.1575L46.6082 26.6911C44.8329 24.625 42.0902 21.4958 40.5135 19.6968C38.6754 19.5973 38.5159 20.7364 39.7527 22.5616H39.7501Z" fill="#263238"/>
<path d="M45.0863 27.1755C45.4497 26.2852 47.0656 22.6899 47.4682 21.9357C47.497 21.8833 47.5362 21.8886 47.5127 21.9462C46.4877 24.6407 45.5203 26.3323 45.1203 27.1886C45.1098 27.2095 45.0758 27.1991 45.0837 27.1755H45.0863Z" fill="#263238"/>
<path d="M57.488 21.7577C59.8124 21.4513 62.6859 20.9302 65.1175 21.9645C65.596 22.1662 65.7685 22.5249 65.7685 22.5249C66.8667 22.9701 66.9869 23.6221 66.9869 23.6221C67.8838 24.3501 67.9151 25.0361 67.9151 25.0361C67.9151 25.0361 69.1989 25.5729 69.0054 26.403C68.791 27.3352 67.0288 26.403 65.745 26.479C62.8061 26.6597 58.6776 27.7411 57.8357 27.8799L57.4854 21.7603L57.488 21.7577Z" fill="#EB9481"/>
<path d="M62.5316 24.5019C63.397 24.4653 64.2467 24.4077 65.1148 24.4889C66.0665 24.5779 66.966 24.824 67.8863 25.0518C67.9151 25.0597 67.9282 25.0204 67.8994 25.0073C66.294 24.3317 64.2363 24.1537 62.5289 24.4627C62.4871 24.4705 62.4871 24.5046 62.5289 24.5019H62.5316Z" fill="#263238"/>
<path d="M62.1655 22.7396C63.0101 22.7501 64.4952 22.7815 66.9791 23.6483C66.9869 23.6509 66.9948 23.6378 66.9869 23.6352C65.4495 22.8575 63.8729 22.5799 62.1682 22.7004C62.1159 22.703 62.1106 22.7396 62.1682 22.7396H62.1655Z" fill="#263238"/>
<path d="M61.9852 21.7917C63.4207 21.865 64.3175 22.0955 65.7608 22.5301C65.7686 22.5301 65.7764 22.5197 65.766 22.5144C64.1763 21.8467 63.5252 21.7865 61.98 21.7419C61.9277 21.7419 61.9277 21.7891 61.9852 21.7917Z" fill="#263238"/>
<path d="M62.2181 26.9215C61.8442 27.097 61.9331 27.2933 62.6495 27.4609C63.3711 27.6311 66.3309 27.6757 66.2263 28.71C66.1243 29.7496 61.9357 29.616 60.7669 29.2494C59.5982 28.8854 57.8359 27.8773 57.8359 27.8773C58.6569 27.7385 60.6127 27.2122 62.2181 26.9215Z" fill="#EB9481"/>
<path d="M42.8221 25.8688C42.8038 26.3166 42.7593 26.7723 42.6966 27.2227C42.7018 27.2069 42.7097 27.1912 42.7149 27.1755C42.8012 26.9398 42.8875 26.6989 42.992 26.4711C42.9973 26.458 43.0182 26.4633 43.0156 26.4764C42.9685 26.7225 42.8822 26.9713 42.7881 27.2043C42.7437 27.3169 42.6966 27.4269 42.6495 27.5369C42.6181 27.7385 42.5815 27.9375 42.5397 28.1339C42.4613 28.5084 42.1083 30.1005 42.0299 30.3702C42.0142 30.4278 41.9462 30.4147 41.9488 30.3519C41.9671 30.0586 42.2652 28.3984 42.3253 28.0239C42.4404 27.3038 42.5998 26.568 42.7907 25.8636C42.7959 25.8479 42.8195 25.8557 42.8195 25.8715L42.8221 25.8688Z" fill="#263238"/>
<path d="M40.0978 37.7729C39.3997 38.1343 38.5002 38.692 34.4475 37.8908C34.1939 37.8384 33.9403 37.7782 33.6841 37.7022C29.885 36.5579 25.3251 32.0827 25.0688 31.7685C25.0688 31.7685 31.1034 21.9672 38.8244 18.8851C39.7788 18.5054 41.358 19.2386 42.2339 20.1525C42.5451 20.4798 43.2249 22.8837 42.9634 24.8319C42.702 26.7775 40.7985 37.4168 40.0952 37.7729H40.0978Z" fill="#8139FF"/>
<path d="M39.5587 24.7429C39.5797 24.9523 39.564 25.1592 39.5378 25.3635C39.5064 25.5677 39.4672 25.7693 39.3888 25.9657C39.3653 25.7563 39.3836 25.5494 39.4097 25.3451C39.4411 25.1409 39.4803 24.9393 39.5587 24.7429Z" fill="white"/>
<path d="M36.9259 31.4176C36.9468 31.6271 36.9312 31.834 36.905 32.0382C36.8736 32.2425 36.8344 32.4441 36.756 32.6405C36.7324 32.431 36.7507 32.2242 36.7769 32.0199C36.8083 31.8157 36.8475 31.614 36.9259 31.4176Z" fill="white"/>
<path d="M32.4523 26.3742C32.4732 26.5837 32.4575 26.7906 32.4314 26.9948C32.4 27.1991 32.3608 27.4007 32.2823 27.5971C32.2588 27.3876 32.2771 27.1808 32.3033 26.9765C32.3346 26.7723 32.3739 26.5706 32.4523 26.3742Z" fill="white"/>
<path d="M41.2819 31.0798C41.3028 31.2893 41.2871 31.4962 41.261 31.7004C41.2296 31.9047 41.1904 32.1063 41.1119 32.3027C41.0884 32.0932 41.1067 31.8864 41.1328 31.6821C41.1642 31.4779 41.2034 31.2762 41.2819 31.0798Z" fill="white"/>
<path d="M35.5376 25.5075C35.7468 25.4865 35.9533 25.5022 36.1573 25.5284C36.3612 25.5599 36.5625 25.5991 36.7586 25.6777C36.5495 25.7013 36.3429 25.6829 36.139 25.6567C35.935 25.6253 35.7337 25.586 35.5376 25.5075Z" fill="white"/>
<path d="M30.46 30.3309C30.6691 30.31 30.8757 30.3257 31.0796 30.3519C31.2836 30.3833 31.4849 30.4226 31.681 30.5011C31.4718 30.5247 31.2653 30.5064 31.0613 30.4802C30.8574 30.4488 30.6561 30.4095 30.46 30.3309Z" fill="white"/>
<path d="M36.4316 35.5497C36.6408 35.5288 36.8474 35.5445 37.0513 35.5707C37.2553 35.6021 37.4566 35.6414 37.6527 35.72C37.4435 35.7435 37.2369 35.7252 37.033 35.699C36.8291 35.6676 36.6277 35.6283 36.4316 35.5497Z" fill="white"/>
<path d="M28.894 33.6539C29.1032 33.633 29.3098 33.6487 29.5137 33.6749C29.7177 33.7063 29.919 33.7456 30.1151 33.8241C29.9059 33.8477 29.6993 33.8294 29.4954 33.8032C29.2915 33.7717 29.0901 33.7325 28.894 33.6539Z" fill="white"/>
<path d="M39.5195 20.053C39.7287 20.032 39.9353 20.0477 40.1392 20.0739C40.3431 20.1054 40.5445 20.1446 40.7406 20.2232C40.5314 20.2468 40.3248 20.2284 40.1209 20.2022C39.917 20.1708 39.7156 20.1315 39.5195 20.053Z" fill="white"/>
<path d="M38.0427 21.7236C37.9093 21.8886 37.7524 22.0222 37.5903 22.1478C37.4256 22.2709 37.2557 22.3835 37.0596 22.4673C37.1929 22.3023 37.3498 22.1688 37.5119 22.0431C37.6766 21.92 37.8492 21.8074 38.0427 21.7236Z" fill="white"/>
<path d="M29.9919 26.4685C29.8585 26.6335 29.7017 26.767 29.5396 26.8927C29.3748 27.0158 29.2049 27.1284 29.0088 27.2122C29.1421 27.0472 29.299 26.9137 29.4611 26.788C29.6258 26.6675 29.7984 26.5523 29.9919 26.4685Z" fill="white"/>
<path d="M40.0451 28.6131C39.9118 28.7781 39.7549 28.9116 39.5928 29.0373C39.4281 29.1604 39.2581 29.273 39.062 29.3568C39.1954 29.1918 39.3522 29.0583 39.5143 28.9326C39.6791 28.8121 39.8516 28.6969 40.0451 28.6131Z" fill="white"/>
<path d="M33.5349 32.7191C33.4015 32.8841 33.2446 33.0176 33.0825 33.1433C32.9178 33.2664 32.7479 33.379 32.5518 33.4628C32.6851 33.2978 32.842 33.1642 33.0041 33.0386C33.1688 32.9155 33.3414 32.8029 33.5349 32.7191Z" fill="white"/>
<path d="M42.5397 23.0015C42.4064 23.1665 42.2495 23.3 42.0874 23.4257C41.9227 23.5488 41.7527 23.6614 41.5566 23.7452C41.69 23.5802 41.8469 23.4467 42.009 23.321C42.1737 23.2005 42.3463 23.0853 42.5397 23.0015Z" fill="white"/>
<path d="M42.4012 27.7621C42.2365 27.6285 42.1032 27.4714 41.9777 27.3091C41.8548 27.1441 41.7424 26.9739 41.6587 26.7775C41.8234 26.911 41.9568 27.0682 42.0823 27.2305C42.2025 27.3955 42.3176 27.5683 42.4012 27.7621Z" fill="white"/>
<path d="M27.8925 31.0379C27.7277 30.9044 27.5944 30.7473 27.4689 30.5849C27.346 30.4199 27.2336 30.2497 27.1499 30.0533C27.3146 30.1869 27.448 30.344 27.5735 30.5064C27.6937 30.6713 27.8088 30.8442 27.8925 31.0379Z" fill="white"/>
<path d="M40.639 34.9396C40.4743 34.8061 40.341 34.649 40.2155 34.4866C40.0926 34.3216 39.9802 34.1514 39.8965 33.955C40.0612 34.0886 40.1946 34.2457 40.3201 34.4081C40.4403 34.573 40.5554 34.7459 40.639 34.9396Z" fill="white"/>
<path d="M34.2513 23.8237C34.0866 23.6902 33.9533 23.5331 33.8278 23.3707C33.7049 23.2057 33.5925 23.0355 33.5088 22.8391C33.6735 22.9727 33.8069 23.1298 33.9324 23.2922C34.0526 23.4571 34.1677 23.63 34.2513 23.8237Z" fill="white"/>
<path d="M34.3636 37.1602C34.1989 37.0266 34.0656 36.8695 33.9401 36.7072C33.8172 36.5422 33.7048 36.372 33.6211 36.1756C33.7858 36.3091 33.9192 36.4663 34.0447 36.6286C34.1649 36.7936 34.28 36.9664 34.3636 37.1602Z" fill="white"/>
<path d="M35.4486 29.2913C35.2839 29.1578 35.1505 29.0007 35.025 28.8383C34.9022 28.6734 34.7897 28.5032 34.7061 28.3068C34.8708 28.4403 35.0041 28.5974 35.1296 28.7598C35.2499 28.9247 35.3649 29.0976 35.4486 29.2913Z" fill="white"/>
<path d="M40.8167 22.7606C39.8335 22.5773 38.9054 20.5374 38.7877 19.1653C38.7799 19.071 39.2479 18.3247 39.7734 17.3899C40.0898 16.8216 40.4297 16.1801 40.6964 15.5752C40.7513 15.4495 41.0729 15.8659 41.0729 15.8659L41.7736 16.4027L44.0876 18.1807C44.0876 18.1807 43.1515 19.2883 42.6913 20.3489C42.6547 20.4379 42.626 20.5243 42.6077 20.6107C42.6051 20.6238 42.6024 20.6369 42.5946 20.6552C42.4639 21.1632 41.7605 22.9413 40.8114 22.7632L40.8167 22.7606Z" fill="#EB9481"/>
<path d="M42.6129 20.6107C42.6129 20.6107 42.6076 20.6369 42.5998 20.6553C42.4743 20.6186 42.3409 20.5688 42.1997 20.5034C39.6662 19.3145 40.7826 15.913 40.7826 15.913L41.7736 16.4053L44.0875 18.1833C44.0875 18.1833 43.1515 19.291 42.6913 20.3515C42.6547 20.4405 42.6259 20.5269 42.6076 20.6134L42.6129 20.6107Z" fill="#263238"/>
<path d="M46.7495 10.9351C46.7495 10.9351 47.9078 11.6709 47.9156 12.9802C47.9235 14.2895 47.4032 15.57 47.2829 15.6145C47.1626 15.659 46.7521 10.9351 46.7521 10.9351H46.7495Z" fill="#263238"/>
<path d="M41.0024 11.6133C40.3069 12.9907 40.3409 17.3218 41.2116 18.4373C42.4718 20.0556 44.8982 20.6134 46.365 19.0134C47.7848 17.4632 47.6409 11.8175 46.6343 10.7649C45.1544 9.21466 42.0326 9.58126 41.005 11.6133H41.0024Z" fill="#EB9481"/>
<path d="M44.6945 15.0855C44.6945 15.0855 44.6709 15.1012 44.6735 15.1117C44.6892 15.4076 44.6579 15.748 44.3938 15.8528C44.3859 15.8554 44.3859 15.8711 44.3964 15.8685C44.7206 15.8161 44.7572 15.3631 44.6945 15.0855Z" fill="#263238"/>
<path d="M44.4251 14.7817C43.9492 14.7556 43.9361 15.7113 44.3754 15.7323C44.8094 15.7559 44.8225 14.8027 44.4251 14.7817Z" fill="#263238"/>
<path d="M46.3077 15.075C46.3077 15.075 46.3312 15.0881 46.3312 15.1012C46.3182 15.3971 46.3495 15.7375 46.6162 15.8397C46.6241 15.8423 46.6241 15.858 46.6136 15.8554C46.2894 15.8056 46.2476 15.3526 46.3103 15.075H46.3077Z" fill="#263238"/>
<path d="M46.5772 14.7687C47.0531 14.7399 47.074 15.693 46.6347 15.7192C46.2007 15.7454 46.1798 14.7922 46.5772 14.7687Z" fill="#263238"/>
<path d="M44.1272 14.0564C44.2579 14.025 44.373 13.9752 44.4985 13.9333C44.6397 13.8836 44.7573 13.86 44.8514 13.7343C44.9011 13.6662 44.8828 13.5458 44.8227 13.4908C44.6815 13.3625 44.4932 13.3782 44.3207 13.4306C44.1324 13.4882 44.0017 13.5798 43.8919 13.7422C43.7847 13.8993 43.9546 14.0983 44.1246 14.059L44.1272 14.0564Z" fill="#263238"/>
<path d="M46.9068 14.4806C46.776 14.4571 46.6584 14.4125 46.5303 14.3759C46.3865 14.334 46.2662 14.3157 46.1668 14.1952C46.1119 14.1297 46.125 14.0093 46.1825 13.9491C46.3159 13.8129 46.5041 13.8207 46.6819 13.8626C46.8728 13.9098 47.0061 13.9936 47.1264 14.1507C47.2415 14.3026 47.0846 14.5094 46.9094 14.478L46.9068 14.4806Z" fill="#263238"/>
<path d="M44.0225 17.8822C44.0931 17.9529 44.1611 18.0498 44.2683 18.0602C44.3702 18.0707 44.4905 18.0262 44.5873 17.9922C44.5977 17.9895 44.6056 18 44.6003 18.0079C44.5219 18.1205 44.3598 18.1885 44.2238 18.1624C44.0905 18.1362 44.0277 18.021 43.9964 17.8979C43.9911 17.8796 44.0147 17.8743 44.0251 17.8848L44.0225 17.8822Z" fill="#263238"/>
<path d="M45.735 16.62C45.735 16.62 45.7481 17.0626 45.7245 17.2668C45.7245 17.2851 45.1441 17.1725 44.5218 17.3087C44.4277 17.3297 44.4381 17.2537 44.5453 17.204C44.7623 17.1045 45.0343 17.0102 45.5676 17.0678C45.5886 17.0128 45.5363 16.387 45.5676 16.3896C45.6801 16.3922 45.8945 16.4917 46.0226 16.5467C46.0226 15.625 45.8762 14.7111 45.8892 13.7946C45.8892 13.7631 45.9389 13.7579 45.9442 13.7867C46.1664 14.7346 46.1873 15.7952 46.2135 16.7457C46.2187 16.8636 45.8134 16.6645 45.735 16.62Z" fill="#263238"/>
<path d="M45.1468 17.1097C45.1468 17.1097 44.9402 17.6282 44.5977 17.7669C44.2029 17.9267 44.0669 17.5679 44.4696 17.2511C44.6814 17.0861 45.1468 17.1097 45.1468 17.1097Z" fill="#263238"/>
<path d="M44.7363 17.6858C44.6918 17.7198 44.6474 17.7486 44.5977 17.767C44.2342 17.9136 44.0904 17.6229 44.3833 17.3297C44.582 17.3454 44.799 17.4187 44.7363 17.6858Z" fill="#FF99BA"/>
<path d="M40.8039 15.3212C41.2824 15.4678 41.8315 14.0276 41.9884 13.4751C42.1243 12.988 42.2838 11.4404 42.3073 11.3331C42.3309 11.2283 44.3912 12.7026 45.5965 12.3491C46.8019 11.9956 47.6072 10.9141 47.6229 10.4087C47.6386 9.90333 46.143 8.62022 44.8488 8.55476C43.5545 8.48929 41.8027 10.1364 41.8027 10.1364C41.8027 10.1364 42.3988 9.42413 42.3779 9.36652C42.357 9.30891 41.5203 9.64409 41.3661 10.2385C41.3661 10.2385 41.5308 9.48959 41.468 9.4765C41.4053 9.46341 40.7542 10.105 40.9007 10.5894C40.9007 10.5894 40.1476 11.2414 40.0797 11.9563C40.0091 12.6712 40.2418 15.1457 40.8039 15.3186V15.3212Z" fill="#263238"/>
<path d="M46.4515 12.0977C46.0854 12.2653 45.7168 12.4512 45.3141 12.5062C44.8775 12.5638 44.4225 12.4538 44.0146 12.2967C43.5989 12.137 43.2198 11.9039 42.8747 11.6211C42.574 11.3724 42.3047 11.0738 41.9831 10.8513C41.902 10.7963 41.8105 10.9115 41.8576 10.9874C42.3465 11.7206 43.2119 12.336 44.0434 12.6005C44.9193 12.878 45.7455 12.6843 46.4541 12.1082C46.4593 12.1056 46.4541 12.0951 46.4489 12.0977H46.4515Z" fill="#263238"/>
<path d="M41.3032 15.1929C41.3032 15.1929 40.5606 13.6846 39.8913 13.9281C39.2219 14.1716 39.635 16.2586 40.3174 16.6383C40.9999 17.0206 41.3659 16.3948 41.3659 16.3948L41.3032 15.1929Z" fill="#EB9481"/>
<path d="M40.0247 14.5225C40.0247 14.5225 40.009 14.5356 40.0168 14.5408C40.4927 14.8263 40.6888 15.3395 40.8012 15.8554C40.6783 15.6433 40.4901 15.5097 40.2103 15.6511C40.1946 15.659 40.2051 15.6825 40.2208 15.6799C40.4352 15.6668 40.5816 15.7271 40.694 15.9156C40.7751 16.0492 40.8195 16.2089 40.8718 16.3555C40.8875 16.4053 40.9738 16.3922 40.966 16.3372C40.966 16.332 40.966 16.3293 40.966 16.3241C41.0784 15.6773 40.715 14.6927 40.0299 14.5199L40.0247 14.5225Z" fill="#263238"/>
<path d="M36.4005 21.9253C35.888 24.8921 39.0883 34.8873 41.146 36.7543C44.2078 39.53 49.8685 41.3552 51.9209 41.9496C52.8152 42.2088 55.2886 35.9085 54.3839 35.4922C52.4465 34.6045 46.4276 32.7243 45.8602 32.2399C45.2928 31.758 41.8337 26.7723 40.2963 23.8997C38.2333 20.0425 36.6567 20.4248 36.3979 21.9253H36.4005Z" fill="#EB9481"/>
<path d="M52.8595 34.9396C52.8595 34.9396 55.5291 35.6205 57.2547 36.1494C58.2169 36.4427 59.8223 37.0973 60.4315 37.6368C61.3414 38.4459 64.6306 42.4052 63.6893 43.2248C62.837 43.9659 60.442 40.203 60.442 40.203C60.442 40.203 63.1926 43.7852 62.0029 44.4896C60.8132 45.194 58.6719 40.5827 58.6719 40.5827C58.6719 40.5827 61.4172 44.3273 60.0733 44.8588C59.0588 45.2595 56.8834 41.1928 56.8834 41.1928C56.8834 41.1928 59.2209 44.4268 58.196 44.885C57.0639 45.3904 54.8205 41.7637 54.8205 41.7637C52.0176 42.489 50.3887 41.6851 49.2958 40.9755C49.0317 40.8026 52.8621 34.937 52.8621 34.937L52.8595 34.9396Z" fill="#EB9481"/>
<path d="M59.5686 38.9042C59.9059 39.3127 60.251 39.7264 60.5543 40.1637C60.855 40.601 61.14 41.0514 61.3988 41.5149C62.0342 42.654 62.2538 43.4658 62.2355 43.416C61.7858 42.2638 60.7321 40.6796 60.4314 40.2423C60.1307 39.805 59.8536 39.352 59.5529 38.9147C59.5451 38.9042 59.5607 38.8937 59.5712 38.9042H59.5686Z" fill="#263238"/>
<path d="M57.971 39.9621C58.5515 40.423 59.7673 42.1381 60.2379 43.2851C60.2588 43.3322 60.2327 43.3296 60.2039 43.2851C59.8353 42.7168 58.3528 40.5172 57.958 39.9699C57.9527 39.9621 57.9632 39.9542 57.971 39.9621Z" fill="#263238"/>
<path d="M56.4365 40.6246C57.1084 41.2897 57.6706 42.1984 58.1151 43.2484C58.136 43.2955 58.0967 43.2877 58.0706 43.2432C57.5294 42.3607 57.111 41.6642 56.4103 40.6455C56.3998 40.6298 56.4234 40.6063 56.4391 40.622L56.4365 40.6246Z" fill="#263238"/>
<path d="M39.3106 22.1452C36.9235 18.7646 35.4959 20.0163 35.9744 23.6876C36.4215 27.1205 37.6242 31.2108 37.6242 31.2108L43.6483 28.2884C43.6483 28.2884 40.8376 24.3108 39.3106 22.1452Z" fill="#8139FF"/>
<path d="M40.7693 23.4728C40.8556 23.6666 40.9 23.8682 40.9393 24.0699C40.9733 24.2715 40.9968 24.4784 40.9811 24.6879C40.8948 24.4941 40.8478 24.2951 40.8111 24.0908C40.7798 23.8892 40.7562 23.6823 40.7693 23.4728Z" fill="white"/>
<path d="M37.2056 25.531C37.399 25.4446 37.5978 25.4001 37.8017 25.3608C38.003 25.3268 38.2096 25.3032 38.4188 25.3189C38.2253 25.4054 38.0266 25.4525 37.8226 25.4891C37.6213 25.5206 37.4147 25.5441 37.2056 25.531Z" fill="white"/>
<path d="M37.3599 20.2703C37.2841 20.4667 37.1743 20.6422 37.0593 20.8124C36.939 20.98 36.8109 21.1397 36.6514 21.2785C36.7272 21.0821 36.837 20.9066 36.9521 20.7364C37.0723 20.5688 37.2004 20.4091 37.3599 20.2703Z" fill="white"/>
<path d="M42.4429 27.1101C42.3671 27.3065 42.2573 27.4819 42.1423 27.6521C42.022 27.8197 41.8939 27.9794 41.7344 28.1182C41.8102 27.9218 41.92 27.7464 42.0351 27.5762C42.1553 27.4086 42.2835 27.2489 42.4429 27.1101Z" fill="white"/>
<path d="M38.2752 29.1604C38.0791 29.0845 37.9039 28.9745 37.734 28.8593C37.5666 28.7388 37.4071 28.6105 37.2686 28.4508C37.4647 28.5267 37.6398 28.6367 37.8098 28.7519C37.9771 28.8724 38.1366 29.0007 38.2752 29.1604Z" fill="white"/>
<path d="M40.1109 23.1612C40.4325 23.6038 40.7646 24.0358 41.094 24.4705C41.0103 24.2506 40.9371 24.0306 40.8718 23.8028C40.8691 23.7923 40.8848 23.7871 40.8874 23.7975C40.9554 23.9704 41.0286 24.1432 41.094 24.316C41.1254 24.3998 41.1567 24.4836 41.1881 24.5674C41.196 24.5857 41.2012 24.6041 41.209 24.6224C41.4679 24.9602 41.7241 25.3006 41.9699 25.6463C42.2654 26.0574 42.5503 26.479 42.838 26.8979C43.1334 27.33 43.4158 27.838 43.7269 28.2596C43.7531 28.2963 43.1935 28.5215 43.1413 28.5529C43.089 28.5817 43.0524 28.5319 43.1073 28.5136C43.1596 28.4979 43.604 28.2256 43.6093 28.2203C43.3217 27.7987 42.9896 27.4086 42.6889 26.9948C42.3909 26.5837 42.0902 26.1752 41.7999 25.7562C41.2117 24.9078 40.6704 24.028 40.0874 23.1769C40.0795 23.1665 40.0978 23.156 40.1057 23.1665L40.1109 23.1612Z" fill="#263238"/>
<path d="M36.1233 26.115C36.2149 26.2931 36.3142 26.4711 36.3953 26.6544C36.4293 26.7304 36.4606 26.8063 36.4946 26.8823C36.356 26.2276 36.2227 25.5756 36.0894 24.9209C36.0894 24.9131 36.0998 24.9105 36.1024 24.9183C36.3796 25.9788 36.6567 27.0368 36.913 28.1025C37.1587 29.1185 37.4516 30.145 37.5928 31.182C37.6764 31.1532 38.1445 30.9594 38.1575 30.9908C38.1706 31.0222 37.5457 31.3181 37.5352 31.2919C37.1953 30.2812 36.9836 29.129 36.7509 28.0894C36.6855 27.7961 36.6254 27.5029 36.5626 27.207C36.4946 27.0289 36.4136 26.8587 36.3325 26.6885C36.2462 26.5052 36.1783 26.3166 36.105 26.1281C36.0998 26.1176 36.1181 26.1098 36.1233 26.1202V26.115Z" fill="#263238"/>
<path d="M37.7211 30.2C38.5577 29.726 42.0535 27.914 42.8379 27.5735C42.8928 27.55 42.9216 27.5788 42.8667 27.6102C40.3932 29.0871 38.5865 29.8098 37.742 30.234C37.7211 30.2445 37.7001 30.2157 37.7211 30.2026V30.2Z" fill="#263238"/>
<path d="M133.529 99.0425H53.8667L65.3842 33.6172H145.047L133.529 99.0425Z" fill="#8139FF"/>
<path d="M92.6497 26.8403H66.5792L65.3843 33.6172H93.2851L92.6497 26.8403Z" fill="#8139FF"/>
<g opacity="0.1">
<path d="M133.529 99.0425H53.8667L65.3842 33.6172H145.047L133.529 99.0425Z" fill="black"/>
<path d="M92.6497 26.8403H66.5792L65.3843 33.6172H93.2851L92.6497 26.8403Z" fill="black"/>
</g>
<path d="M63.766 29.6056C63.664 29.2259 63.6405 28.8462 63.6353 28.4665C63.6379 28.0868 63.6614 27.7071 63.766 27.3274C63.8706 27.7071 63.8941 28.0868 63.8967 28.4665C63.8915 28.8462 63.868 29.2259 63.766 29.6056Z" fill="#263238"/>
<path d="M61.4494 30.2759C61.1696 29.9984 60.9604 29.6815 60.767 29.3542C60.5813 29.0242 60.4114 28.6838 60.312 28.3015C60.5918 28.5791 60.8009 28.8959 60.9944 29.2233C61.1801 29.5532 61.35 29.8936 61.4494 30.2759Z" fill="#263238"/>
<path d="M59.7761 32.0173C59.397 31.9178 59.0571 31.7476 58.725 31.5617C58.3982 31.3679 58.0818 31.1584 57.8047 30.8782C58.1838 30.9777 58.5237 31.1479 58.8558 31.3338C59.1826 31.5276 59.499 31.7371 59.7761 32.0173Z" fill="#263238"/>
<path d="M59.1981 34.3609C58.8189 34.463 58.4398 34.4866 58.0607 34.4918C57.6816 34.4892 57.3025 34.4657 56.9233 34.3609C57.3025 34.2562 57.6816 34.2326 58.0607 34.23C58.4398 34.2352 58.8189 34.2588 59.1981 34.3609Z" fill="#263238"/>
<path d="M59.8674 36.681C59.5903 36.9612 59.2739 37.1706 58.9471 37.3644C58.6176 37.5503 58.2777 37.7205 57.896 37.8201C58.1731 37.5399 58.4895 37.3304 58.8163 37.1366C59.1458 36.9507 59.4857 36.7805 59.8674 36.681Z" fill="#263238"/>
<path d="M61.6061 38.3569C61.5068 38.7366 61.3368 39.077 61.1512 39.4095C60.9577 39.7369 60.7485 40.0537 60.4688 40.3313C60.5681 39.9516 60.7381 39.6112 60.9237 39.2786C61.1172 38.9513 61.3263 38.6344 61.6061 38.3569Z" fill="#263238"/>
<path d="M63.9491 38.9356C64.0511 39.3153 64.0746 39.695 64.0798 40.0747C64.0772 40.4544 64.0537 40.8341 63.9491 41.2137C63.8445 40.8341 63.821 40.4544 63.8184 40.0747C63.8236 39.695 63.8471 39.3153 63.9491 38.9356Z" fill="#263238"/>
<path d="M66.2656 38.2652C66.5454 38.5428 66.7546 38.8596 66.948 39.187C67.1337 39.5169 67.3036 39.8573 67.403 40.2396C67.1232 39.9621 66.9141 39.6452 66.7206 39.3179C66.5349 38.988 66.365 38.6475 66.2656 38.2652Z" fill="#263238"/>
<path d="M67.936 36.5239C68.3152 36.6234 68.6551 36.7936 68.9871 36.9795C69.314 37.1733 69.6303 37.3828 69.9075 37.6629C69.5283 37.5634 69.1884 37.3932 68.8564 37.2073C68.5296 37.0135 68.2132 36.8041 67.936 36.5239Z" fill="#263238"/>
<path d="M68.5142 34.1776C68.8933 34.0755 69.2724 34.0519 69.6515 34.0467C70.0306 34.0493 70.4098 34.0729 70.7889 34.1776C70.4098 34.2824 70.0306 34.3059 69.6515 34.3086C69.2724 34.3033 68.8933 34.2797 68.5142 34.1776Z" fill="#263238"/>
<path d="M67.8447 31.8575C68.1219 31.5773 68.4382 31.3679 68.7651 31.1741C69.0945 30.9882 69.4344 30.818 69.8162 30.7184C69.539 30.9986 69.2226 31.2081 68.8958 31.4019C68.5664 31.5878 68.2265 31.758 67.8447 31.8575Z" fill="#263238"/>
<path d="M66.106 30.1843C66.2053 29.8046 66.3753 29.4642 66.5609 29.1316C66.7544 28.8043 66.9636 28.4874 67.2433 28.2099C67.144 28.5896 66.974 28.93 66.7884 29.2625C66.5949 29.5899 66.3857 29.9067 66.106 30.1843Z" fill="#263238"/>
<path d="M133.412 99.0426H53.5766L42.2422 35.9923H122.077L133.412 99.0426Z" fill="#8139FF"/>
<path d="M69.9078 74.5352C71.7403 74.5352 73.2258 73.0475 73.2258 71.2122C73.2258 69.377 71.7403 67.8893 69.9078 67.8893C68.0754 67.8893 66.5898 69.377 66.5898 71.2122C66.5898 73.0475 68.0754 74.5352 69.9078 74.5352Z" fill="white"/>
<path d="M96.1378 74.5352C97.9703 74.5352 99.4558 73.0475 99.4558 71.2122C99.4558 69.377 97.9703 67.8893 96.1378 67.8893C94.3053 67.8893 92.8198 69.377 92.8198 71.2122C92.8198 73.0475 94.3053 74.5352 96.1378 74.5352Z" fill="white"/>
<rect x="76.6094" y="80.6287" width="11.5044" height="0.785568" fill="white"/>
<path d="M128.115 70.8299C128.285 70.7933 128.455 70.754 128.625 70.7095" stroke="#C8A7F5" stroke-miterlimit="10"/>
<path d="M129.626 70.4136C133.627 69.0598 136.976 65.9096 137.29 62.2279C137.985 54.1103 128.112 49.6273 129.132 40.2449C130.105 31.2972 139.476 30.6582 143.233 31.8942C147.382 33.2611 145.96 37.2544 142.203 36.7386C135.69 35.8456 131.595 28.7545 134.688 20.7102C137 14.7006 142.76 12.4329 145.1 11.7416" stroke="#C8A7F5" stroke-miterlimit="10" stroke-dasharray="4 4"/>
<path d="M145.609 11.6054C145.934 11.5216 146.117 11.4876 146.117 11.4876" stroke="#C8A7F5" stroke-miterlimit="10"/>
<path d="M150.263 10.0395C149.596 7.97082 145.131 8.7145 146.001 11.4169C146.872 14.1219 150.93 12.1082 150.263 10.0395Z" fill="#C8A7F5"/>
<path d="M143.572 9.20417C143.606 8.29553 144.867 7.59898 146.65 7.92107C148.433 8.24315 150.111 9.44508 150.111 9.44508C150.111 9.44508 148.349 10.5239 146.548 10.7151C144.746 10.9063 143.541 10.1154 143.575 9.20417H143.572Z" fill="#BFBFBF"/>
<path d="M150.109 9.4451C149.183 9.45033 148.26 9.42153 147.335 9.39273C146.412 9.35345 145.486 9.31679 144.566 9.24085C145.491 9.23299 146.414 9.26442 147.34 9.29322C148.263 9.3325 149.189 9.36916 150.109 9.4451Z" fill="#C8A7F5"/>
<path d="M145.363 8.40027C145.63 8.52072 145.878 8.6726 146.127 8.82186C146.37 8.98159 146.616 9.13871 146.841 9.32725C146.574 9.20679 146.325 9.05491 146.077 8.90565C145.834 8.74592 145.588 8.58881 145.363 8.40027Z" fill="#C8A7F5"/>
<path d="M147.787 9.3613C147.552 9.56031 147.298 9.7279 147.044 9.89811C146.786 10.0578 146.527 10.2202 146.25 10.3511C146.485 10.1521 146.738 9.98452 146.992 9.81431C147.251 9.65458 147.51 9.49223 147.787 9.3613Z" fill="#C8A7F5"/>
<path d="M148.057 8.84805C148.195 8.90828 148.31 8.99731 148.425 9.08373C148.535 9.17799 148.645 9.27226 148.734 9.39534C148.595 9.33511 148.48 9.24608 148.365 9.15966C148.255 9.0654 148.146 8.97113 148.057 8.84805Z" fill="#C8A7F5"/>
<path d="M145.272 14.5933C145.829 15.3107 147.259 15.1379 148.516 13.8339C149.774 12.5298 150.433 10.5711 150.433 10.5711C150.433 10.5711 148.373 10.7282 146.801 11.629C145.23 12.5298 144.712 13.8758 145.272 14.5959V14.5933Z" fill="#BFBFBF"/>
<path d="M150.433 10.5685C149.677 11.1053 148.948 11.6709 148.213 12.2365C147.486 12.81 146.759 13.3808 146.053 13.9805C146.809 13.4437 147.538 12.878 148.273 12.3124C149 11.739 149.727 11.1681 150.433 10.5685Z" fill="#C8A7F5"/>
<path d="M147.193 14.1952C147.34 13.9412 147.452 13.6715 147.567 13.4044C147.672 13.132 147.779 12.8623 147.85 12.5769C147.703 12.8309 147.591 13.1006 147.476 13.3677C147.371 13.64 147.264 13.9098 147.193 14.1952Z" fill="#C8A7F5"/>
<path d="M148.597 11.9982C148.292 11.9746 147.986 11.9877 147.682 11.9982C147.379 12.0191 147.073 12.0375 146.772 12.0951C147.078 12.1186 147.384 12.1056 147.688 12.0951C147.991 12.0741 148.297 12.0532 148.597 11.9982Z" fill="#C8A7F5"/>
<path d="M149.115 12.2548C149.193 12.1265 149.232 11.9877 149.277 11.8489C149.311 11.7075 149.345 11.5661 149.345 11.4169C149.266 11.5452 149.227 11.684 149.183 11.8228C149.149 11.9642 149.115 12.1056 149.115 12.2548Z" fill="#C8A7F5"/>
<path d="M150.263 10.0395C149.853 10.1731 149.411 9.94525 149.277 9.53413C149.144 9.12301 149.372 8.68047 149.782 8.54692C150.193 8.41337 150.634 8.64119 150.768 9.05231C150.901 9.46343 150.674 9.90597 150.263 10.0395Z" fill="#B0A5D1"/>
<path d="M150.744 11.5321C150.334 11.6656 149.892 11.4378 149.758 11.0267C149.625 10.6156 149.853 10.1731 150.263 10.0395C150.674 9.90596 151.115 10.1338 151.249 10.5449C151.382 10.956 151.155 11.3986 150.744 11.5321Z" fill="#B0A5D1"/>
</g>
<defs>
<clipPath id="clip0_5818_7617">
<rect width="160" height="105" fill="white" transform="translate(0 0.5)"/>
</clipPath>
</defs>
</svg>
