<svg width="30" height="30" viewBox="0 0 30 30" fill="none" xmlns="http://www.w3.org/2000/svg">
<path fill-rule="evenodd" clip-rule="evenodd" d="M7.89078 8.96318C8.86408 6.6566 11.2269 4.5 14.726 4.5C18.502 4.5 21.7223 7.04697 22.4736 11.1585C23.4448 11.3212 24.4524 11.7016 25.2908 12.3239C26.3796 13.1322 27.2019 14.3715 27.2019 16.0265C27.2019 17.6225 26.5274 18.8998 25.4276 19.7548C24.3533 20.5901 22.9328 20.9806 21.4567 20.9806H17.8029C17.2851 20.9806 16.8654 20.5608 16.8654 20.0431C16.8654 19.5253 17.2851 19.1056 17.8029 19.1056H21.4567C22.6249 19.1056 23.6082 18.7943 24.2767 18.2746C24.9197 17.7747 25.3269 17.0437 25.3269 16.0265C25.3269 15.0684 24.8752 14.3506 24.1732 13.8295C23.448 13.2912 22.4797 12.9898 21.6027 12.9464C21.1409 12.9235 20.7647 12.5674 20.7166 12.1075C20.3379 8.48603 17.7434 6.375 14.726 6.375C11.8775 6.375 10.0602 8.24999 9.46479 10.1056C9.35024 10.4626 9.03399 10.717 8.66072 10.7525C6.06058 10.9993 4.125 12.5858 4.125 14.9311C4.125 17.2923 6.16712 19.1056 8.95673 19.1056H11.649C12.1668 19.1056 12.5865 19.5253 12.5865 20.0431C12.5865 20.5608 12.1668 20.9806 11.649 20.9806H8.95673C5.40019 20.9806 2.25 18.5774 2.25 14.9311C2.25 11.498 4.94304 9.45339 7.89078 8.96318Z" fill="white" fill-opacity="0.77"/>
<path fill-rule="evenodd" clip-rule="evenodd" d="M14.0632 10.9243C14.4292 10.5584 15.0225 10.5584 15.3885 10.9243L18.4655 13.9991C18.8317 14.3651 18.8319 14.9587 18.4659 15.3249C18.0999 15.6912 17.5063 15.6914 17.1401 15.3254L15.6633 13.8497V23.907C15.6633 24.4248 15.2436 24.8445 14.7258 24.8445C14.2081 24.8445 13.7883 24.4248 13.7883 23.907V13.8497L12.3116 15.3254C11.9454 15.6914 11.3518 15.6912 10.9858 15.3249C10.6198 14.9587 10.62 14.3651 10.9862 13.9991L14.0632 10.9243Z" fill="white" fill-opacity="0.77"/>
</svg>
