<svg width="18" height="19" viewBox="0 0 18 19" fill="none" xmlns="http://www.w3.org/2000/svg">
<path fill-rule="evenodd" clip-rule="evenodd" d="M0.9375 3.89014C0.9375 2.75105 1.86092 1.82764 3 1.82764H15C16.1391 1.82764 17.0625 2.75105 17.0625 3.89014V15.8901C17.0625 17.0292 16.1391 17.9526 15 17.9526H3C1.86092 17.9526 0.9375 17.0292 0.9375 15.8901V3.89014ZM10.2724 5.03003C10.4713 4.79137 10.826 4.75913 11.0647 4.95801L13.1101 6.66256C13.238 6.76915 13.3121 6.92693 13.3125 7.09342C13.3129 7.25992 13.2395 7.41804 13.112 7.5252L11.0665 9.24529C10.8288 9.44516 10.474 9.41456 10.274 9.17674C10.0741 8.93899 10.1047 8.58416 10.3425 8.38423L11.2071 7.65718H6.61364C6.17118 7.65718 5.8125 8.01586 5.8125 8.45831V9.14014C5.8125 9.45079 5.56066 9.70264 5.25 9.70264C4.93934 9.70264 4.6875 9.45079 4.6875 9.14014V8.45831C4.6875 7.39454 5.54987 6.53218 6.61364 6.53218H11.1964L10.3444 5.82226C10.1058 5.62338 10.0736 5.26869 10.2724 5.03003ZM7.7328 14.4482C7.53743 14.6897 7.18327 14.7272 6.94172 14.5318L4.89627 12.8774C4.76318 12.7698 4.68635 12.6074 4.68752 12.4363C4.68868 12.2651 4.76771 12.1038 4.90225 11.998L6.94771 10.3892C7.19188 10.1971 7.54553 10.2394 7.7376 10.4835C7.92968 10.7277 7.88737 11.0813 7.64318 11.2734L6.87503 11.8776H11.3863C11.8985 11.8776 12.1875 11.5268 12.1875 11.2401V10.6401C12.1875 10.3295 12.4394 10.0776 12.75 10.0776C13.0606 10.0776 13.3125 10.3295 13.3125 10.6401V11.2401C13.3125 12.2789 12.3804 13.0026 11.3863 13.0026H6.83997L7.64918 13.6571C7.89075 13.8524 7.92817 14.2067 7.7328 14.4482Z" fill="#FFF4F4"/>
</svg>
