<svg width="12" height="12" viewBox="0 0 12 12" fill="none" xmlns="http://www.w3.org/2000/svg">
<path d="M-2.34218e-07 6.0249C-2.45811e-07 6.29012 0.102517 6.54447 0.284998 6.73201C0.467478 6.91955 0.714975 7.0249 0.973042 7.0249L8.67954 7.0249L6.12368 9.65157C5.9518 9.84114 5.85823 10.0919 5.86268 10.3509C5.86713 10.61 5.96924 10.8572 6.14752 11.0404C6.3258 11.2236 6.56632 11.3286 6.8184 11.3331C7.07049 11.3377 7.31446 11.2415 7.49891 11.0649L11.7154 6.73157C11.8976 6.54407 12 6.2899 12 6.0249C12 5.7599 11.8976 5.50574 11.7154 5.31824L7.49891 0.984903C7.40983 0.886654 7.30241 0.807852 7.18305 0.753196C7.06369 0.69854 6.93484 0.66915 6.80419 0.666781C6.67354 0.664412 6.54376 0.689112 6.4226 0.739406C6.30144 0.789701 6.19138 0.86456 6.09898 0.959519C6.00658 1.05448 5.93374 1.16759 5.8848 1.29211C5.83586 1.41662 5.81183 1.55 5.81413 1.68427C5.81644 1.81854 5.84504 1.95096 5.89822 2.07362C5.9514 2.19629 6.02808 2.30669 6.12368 2.39824L8.67954 5.0249L0.973042 5.0249C0.435922 5.0249 -2.10089e-07 5.4729 -2.34218e-07 6.0249Z" fill="white"/>
</svg>
