<svg width="24" height="24" viewBox="0 0 24 24" fill="none" xmlns="http://www.w3.org/2000/svg">
<path d="M16.7999 13.6001C14.5914 13.6001 12.7998 15.3907 12.7998 17.5999C12.7998 19.8087 14.5914 21.6 16.7999 21.6C19.0084 21.6 20.8 19.8087 20.8 17.5999C20.8 15.3907 19.0084 13.6001 16.7999 13.6001ZM19.1999 18.1999H16.1999V15.1999H17.3999V16.9999H19.1999V18.1999Z" fill="white"/>
<path d="M15.9999 2.3999H4.79979C3.92019 2.3999 3.19971 3.12014 3.19971 3.99998V18.4C3.19971 19.2796 3.92019 19.9998 4.79979 19.9998H11.1999V17.5998C11.1999 14.5125 13.7124 11.9999 16.7998 11.9999H17.5997V3.99998C17.5997 3.12014 16.8795 2.3999 15.9999 2.3999ZM5.59971 4.7999H13.5999V6.39998H5.59971V4.7999ZM8.79987 16H5.59971V14.3999H8.79987V16ZM10.3997 12.7998H5.59971V11.2H10.3997V12.7998ZM15.1997 9.5999H5.59971V7.99982H15.1997V9.5999Z" fill="white"/>
</svg>
